<svg width="98" height="16" viewBox="0 0 98 16" fill="none" xmlns="http://www.w3.org/2000/svg">
<path d="M34.4244 8.28139C33.3434 9.20364 32.5144 10.7166 32.0429 12.3331C32.2326 10.9206 32.4351 9.52389 32.7891 8.13664C33.0609 7.07489 33.5181 6.25314 34.0199 5.46614C34.2886 5.01114 34.5809 4.57239 34.8674 4.12514C33.8611 4.50289 32.9196 5.07564 32.1604 6.04389C31.8871 6.50389 31.6426 7.00364 31.4219 7.52314C31.6101 6.11564 31.9644 4.75464 32.6126 3.47839C32.3274 3.70264 32.0586 3.97364 31.8191 4.26664C31.3679 5.00664 30.9049 6.08364 30.4566 8.15989C30.5064 7.00089 30.7559 4.58239 30.9266 3.38889C31.1739 2.42139 31.4249 1.08539 31.5114 0.369141C30.8046 1.77189 29.1689 5.78014 29.7166 12.0206C29.5626 10.7184 29.3404 9.42364 29.0244 8.17089C28.5671 6.34864 27.9939 4.73114 26.5891 3.88839C27.0796 5.17514 28.1464 8.40114 28.0319 11.8676C25.8051 8.57964 26.3426 6.21089 26.3739 4.83964C26.3769 4.71914 25.0871 7.06364 25.1614 9.86864C24.3449 7.90214 25.4846 4.98839 25.3924 5.04364C24.5284 5.56464 23.8714 6.70014 23.4776 7.79489C23.4489 7.87414 23.4144 7.97414 23.3766 8.08239C23.3696 8.09189 23.3611 8.09964 23.3541 8.10939C23.6369 6.88464 24.3669 4.26114 24.2484 4.34764C23.6346 4.80064 23.1464 5.48864 22.7176 6.25389C22.9441 5.39864 23.2159 4.57339 23.5454 3.79764C22.6089 4.34414 21.7694 5.09789 21.1729 6.21414C20.8391 6.95839 20.5576 7.78739 20.3659 8.65214C20.3709 7.49039 20.4394 6.00114 20.7091 4.76664C20.7091 4.76664 19.1891 7.30589 19.1891 10.7004C19.1891 10.7004 18.4486 6.42189 16.5966 7.00164C16.5966 7.00164 17.8871 8.87914 17.8871 11.4179C17.8871 11.4179 17.3629 9.78964 16.5204 9.89914C16.5204 9.89914 17.1079 11.0874 17.1079 12.3569C17.1079 12.3569 17.0701 12.2759 16.9984 12.1554C16.7711 11.0329 16.2701 9.98239 15.3661 9.77814C15.3599 9.77639 15.3529 9.77664 15.3459 9.77664C15.6821 10.0866 15.8006 10.7166 15.9016 11.2036C16.0781 12.0599 16.1046 12.9336 15.9706 13.8036C15.9614 13.8659 15.8924 13.8721 15.8704 13.8209C15.4584 12.8781 15.2004 11.8509 15.1454 10.7736C15.0939 10.7441 15.0219 10.7549 14.9179 10.8271C14.6471 11.0134 14.4021 11.4574 14.2061 11.8519C14.1176 10.2456 15.8659 8.85739 15.8401 8.79014C15.3221 8.71939 14.8769 8.76264 14.2499 9.29939C13.3809 10.0444 12.9984 11.1184 13.0364 10.8856C13.3016 9.27389 14.1064 7.94239 15.0926 6.94564C14.3404 6.93064 13.5299 7.34064 12.8146 7.90989C13.3149 7.08164 14.5191 5.23239 14.3544 5.30614C13.0329 5.89989 11.5506 7.40664 10.7129 9.20364C10.9231 7.93464 11.4334 5.76914 12.5804 4.67964C12.5804 4.67964 10.6126 4.87189 9.25214 9.28864C9.51964 7.62939 10.6376 4.11064 11.4291 3.06639C11.5296 2.93389 9.87039 2.80839 8.43539 7.45064C8.45989 5.85614 8.97514 2.06314 9.32589 0.454891C9.32589 0.454891 8.21639 2.12714 7.64514 5.54589C7.64489 5.54414 7.22939 8.06439 7.22289 9.08414C7.02464 7.92364 5.85389 3.04464 3.64564 3.04014C3.64564 3.04014 6.51314 5.08664 6.15089 12.6309C6.15089 12.6309 5.18714 7.14814 2.95039 6.80564C2.95039 6.80564 4.99614 9.66439 4.71564 13.4044C4.71564 13.4044 4.00614 9.44939 0.556641 9.47564C0.556641 9.47564 3.10964 11.4546 3.48014 15.1879H33.0314C33.2009 14.4581 33.3999 13.7479 33.6391 13.0659C34.3151 10.5804 35.4431 8.40464 37.1844 6.70989C36.3724 6.54389 34.9324 7.84839 34.4244 8.28139Z" fill="#73B634"/>
<path d="M15.1451 10.7733C15.1321 10.7658 15.1179 10.7613 15.1024 10.7593C14.9169 11.2725 15.0494 12.0155 15.1586 12.5095C15.3261 13.2678 15.5916 14.028 16.0461 14.5645C16.0231 14.3235 15.9656 14.0895 15.9404 13.8468C15.9156 13.8603 15.8841 13.8535 15.8704 13.8205C15.4581 12.878 15.2001 11.8508 15.1451 10.7733Z" fill="#497F34"/>
<path d="M3.14648 6.85059C4.12298 7.40909 4.79898 8.71308 5.25723 9.92033C5.74723 11.2098 6.05373 12.6151 6.15273 14.0476C6.17873 13.5278 6.18648 13.0078 6.15573 12.4916C6.15373 12.5388 6.15273 12.5828 6.15073 12.6308C6.15073 12.6308 5.24298 7.46984 3.14648 6.85059Z" fill="#497F34"/>
<path d="M3.78925 11.8389C3.99825 12.2396 4.16875 12.6636 4.31325 13.1024C4.48875 13.5291 4.64375 13.9721 4.78775 14.4214C4.78625 14.0716 4.76375 13.7241 4.716 13.3816C4.7155 13.3894 4.7155 13.3966 4.71475 13.4044C4.71475 13.4044 4.0745 9.84638 1.0625 9.50488C1.20475 9.54488 1.34625 9.59138 1.4845 9.65538C1.811 9.80638 2.133 9.98413 2.42975 10.2161C2.96575 10.6334 3.4365 11.1629 3.78925 11.8389Z" fill="#497F34"/>
<path d="M4.84084 3.89243C5.34759 4.45093 5.78559 5.13118 6.11959 5.87918C6.67184 7.11493 7.05734 8.52418 7.18734 9.95568C7.23084 9.57593 7.27409 9.19718 7.23234 8.81493C7.22734 8.91218 7.22384 9.00368 7.22334 9.08418C7.03359 7.96968 5.94509 3.42693 3.90234 3.06543C4.25484 3.26668 4.59334 3.61793 4.84084 3.89243Z" fill="#497F34"/>
<path d="M7.96912 6.78558C7.85962 8.51758 7.90462 10.2696 8.13212 11.9816C8.11587 11.1886 8.09688 10.3948 8.19213 9.61032C8.21413 9.42982 8.23613 9.25032 8.25838 9.07082C8.29838 8.41907 8.35962 7.76983 8.44637 7.12408C8.51962 5.50508 8.93563 2.42082 9.25788 0.788574C8.58213 2.70782 8.10287 4.65908 7.96912 6.78558Z" fill="#497F34"/>
<path d="M10.4925 4.37452C10.0667 5.06452 9.73399 5.84102 9.48424 6.66427C9.06049 8.06552 8.79724 9.60427 8.86649 11.1185C8.95374 10.2825 9.13399 9.46452 9.37049 8.67727C9.72924 7.03452 10.5657 4.47677 11.246 3.34277C10.978 3.66552 10.7207 4.00477 10.4925 4.37452Z" fill="#497F34"/>
<path d="M12.5228 4.73926C12.0183 4.99751 11.541 5.60301 11.2328 6.10826C10.8098 6.80101 10.4863 7.62151 10.2955 8.47151C9.985 9.85776 9.74125 11.5185 10.1078 12.9345C10.157 11.5695 10.3833 10.2515 10.7515 8.97776C10.9788 7.71401 11.4808 5.78101 12.5228 4.73926Z" fill="#497F34"/>
<path d="M15.0182 7.02393C14.5792 7.26218 14.136 7.51142 13.754 7.87967C13.2895 8.32717 12.944 8.92742 12.7055 9.61042C12.2585 10.8864 11.9905 12.5889 12.4577 13.9209C12.5057 12.8697 12.7177 11.8449 13.0572 10.8942C13.037 10.9257 13.0307 10.9274 13.037 10.8857C13.2952 9.31492 14.0665 8.01143 15.0182 7.02393Z" fill="#497F34"/>
<path d="M13.7669 11.3251C13.4349 12.4124 13.2434 13.7984 13.6069 14.9176C13.6994 13.8226 13.8596 12.7479 14.2431 11.7774C14.2301 11.8021 14.2179 11.8271 14.2054 11.8514C14.1169 10.2451 15.8651 8.85687 15.8394 8.78962C15.8314 8.78862 15.8234 8.78812 15.8151 8.78662C15.4459 9.06962 15.0561 9.31862 14.7156 9.65812C14.2831 10.0914 13.9681 10.6664 13.7669 11.3251Z" fill="#497F34"/>
<path d="M15.5762 9.84473C15.9119 10.0955 16.2002 10.569 16.3869 10.9207C16.7774 11.6547 16.9474 12.5582 17.0024 13.4452C17.0972 13.0282 17.1464 12.5792 17.1022 12.1522C17.1054 12.2202 17.1082 12.288 17.1082 12.357C17.1082 12.357 17.0704 12.276 16.9987 12.1555C16.7892 11.1232 16.3482 10.154 15.5762 9.84473Z" fill="#497F34"/>
<path d="M18.3573 9.24571C18.7763 10.4452 18.9153 11.7365 18.9545 13.0392C19.118 12.2372 19.2085 11.4115 19.169 10.5917C19.0398 9.93696 18.287 6.54621 16.6445 6.99071C17.4133 7.46246 17.996 8.21246 18.3573 9.24571Z" fill="#497F34"/>
<path d="M20.6298 12.998C20.3848 11.5775 20.2393 10.0697 20.3738 8.61821C20.3716 8.62971 20.3686 8.64096 20.3661 8.65221C20.3703 7.63621 20.4233 6.36896 20.6168 5.24121C19.9386 7.75771 19.7251 10.56 20.6298 12.998Z" fill="#497F34"/>
<path d="M21.9802 7.06587C21.7089 8.40912 21.5529 9.89237 21.8517 11.2486C21.9689 9.40712 22.1952 7.55187 22.8954 5.94962C22.8352 6.04987 22.7759 6.15112 22.7187 6.25362C22.9397 5.41737 23.2064 4.61012 23.5262 3.84912C22.7407 4.68187 22.2424 5.76762 21.9802 7.06587Z" fill="#497F34"/>
<path d="M23.0229 10.886C23.0689 9.94079 23.1669 9.00779 23.3569 8.10754C23.3561 8.10779 23.3551 8.10854 23.3549 8.10929C23.3639 8.07029 23.3731 8.03004 23.3834 7.98729C23.4241 7.80304 23.4686 7.61954 23.5176 7.43779C23.8469 6.12079 24.3486 4.27504 24.2491 4.34779C24.2181 4.37054 24.1889 4.39679 24.1586 4.42079C23.6706 5.32004 23.3304 6.36804 23.1304 7.42979C22.9191 8.55379 22.8336 9.74904 23.0229 10.886Z" fill="#497F34"/>
<path d="M25.6333 11.9365C25.4575 11.1352 25.242 10.343 25.1605 9.52549C25.1593 9.63899 25.1593 9.75349 25.1623 9.86874C24.3458 7.90224 25.4855 4.98849 25.3933 5.04374C25.372 5.05699 25.351 5.07074 25.33 5.08424C24.7565 5.91174 24.583 7.17549 24.5655 8.24924C24.5428 9.61974 24.885 10.9667 25.6333 11.9365Z" fill="#497F34"/>
<path d="M26.3739 4.83976C26.3742 4.83176 26.3684 4.83551 26.3592 4.84601C25.9197 6.48626 25.8574 8.26226 26.3054 9.92101C26.5294 10.7495 26.8602 11.5323 27.3557 12.1378C27.6837 12.5375 28.0617 13.052 28.5087 13.2268C28.3124 12.785 28.1597 12.3198 28.0324 11.8418C28.0317 11.8508 28.0317 11.859 28.0317 11.8678C25.8049 8.57976 26.3427 6.21101 26.3739 4.83976Z" fill="#497F34"/>
<path d="M27.6787 5.43046C28.0375 6.24246 28.3172 7.12121 28.5637 8.00096C28.8322 8.95621 29.0492 9.93971 29.1832 10.9427C29.293 11.7687 29.2715 12.5992 29.3355 13.4257C29.4802 12.6855 29.6345 11.9252 29.6045 11.1625C29.46 10.1502 29.271 9.14746 29.0242 8.17096C28.582 6.41296 28.0307 4.84696 26.7305 3.98096C27.0945 4.40771 27.424 4.85221 27.6787 5.43046Z" fill="#497F34"/>
<path d="M30.2437 8.66539C30.2542 9.42964 30.2794 10.2011 30.4549 10.9304C30.5162 9.64664 30.5439 8.36114 30.7092 7.09414C30.6244 7.41764 30.5394 7.77139 30.4559 8.15989C30.5057 7.00089 30.7552 4.58239 30.9259 3.38889C31.1732 2.42139 31.4242 1.08539 31.5107 0.369141C31.4832 0.423391 31.4539 0.482642 31.4242 0.544392C30.8487 2.18164 30.4614 3.97889 30.3052 5.75789C30.2197 6.72839 30.2297 7.69164 30.2437 8.66539Z" fill="#497F34"/>
<path d="M34.021 5.46616C34.2808 5.02666 34.5618 4.60241 34.8393 4.17041C33.5483 5.20941 32.5218 6.73041 32.0278 8.61991C31.7725 9.59516 31.6285 10.6369 31.5978 11.6667C31.5695 12.6232 31.6315 13.6297 32.0068 14.4674C32.0343 13.6234 32.049 12.7687 32.1663 11.9442C32.1233 12.0729 32.082 12.2032 32.044 12.3332C32.2338 10.9207 32.4363 9.52391 32.7903 8.13666C33.062 7.07491 33.5193 6.25291 34.021 5.46616Z" fill="#497F34"/>
<path d="M36.3507 7.26335C35.9659 7.53785 35.6087 7.87809 35.2864 8.26509C34.6719 9.00109 34.1434 9.8591 33.7574 10.8253C33.2149 12.1848 32.9229 13.6726 32.8359 15.1876H33.0322C33.2017 14.4578 33.4007 13.7476 33.6399 13.0656C34.2929 10.6626 35.3709 8.55035 37.0157 6.88135C36.7914 7.00035 36.5642 7.11185 36.3507 7.26335Z" fill="#497F34"/>
<path d="M31.0186 11.0148C31.1329 9.80852 31.1661 8.56077 31.4361 7.42002C31.6284 6.04877 31.9796 4.72402 32.6119 3.47852C32.5196 3.55127 32.4299 3.63002 32.3414 3.71102C31.7659 4.75452 31.3331 5.85876 31.1069 7.13776C30.8879 8.38026 30.7289 9.76827 31.0186 11.0148Z" fill="#497F34"/>
<path d="M16.5195 9.89877C16.5195 9.89877 16.5248 9.91001 16.5333 9.92876C16.9193 10.3458 17.2905 10.7828 17.4535 11.429C17.6498 12.2063 17.6895 13.0123 17.696 13.8228C17.87 13.3418 17.916 12.7915 17.9328 12.2638C17.947 11.8188 17.8493 11.4328 17.737 11.0393C17.5248 10.5655 17.097 9.82427 16.5195 9.89877Z" fill="#497F34"/>
<path d="M12.0629 8.13198C11.5174 9.25023 11.0734 10.5485 11.0059 11.8877C11.2716 10.9095 11.5219 9.90323 11.9899 9.05623C12.2514 8.58373 12.5554 8.16073 12.8901 7.78423C13.3821 6.98073 14.3354 5.50498 14.3669 5.32373C13.4636 6.04748 12.6366 6.95648 12.0629 8.13198Z" fill="#497F34"/>
<path d="M33.8321 4.84132C33.3773 5.16182 32.9691 5.44332 32.5596 5.86332C32.2051 6.22682 31.9186 6.83782 31.7223 7.35507C31.7073 7.39507 31.7433 7.40632 31.7581 7.37432C32.2803 6.26132 33.0163 5.56157 33.8371 4.86357C33.8461 4.85682 33.8438 4.83232 33.8321 4.84132Z" fill="#73B634"/>
<path d="M35.0234 7.97982C34.2899 8.57857 33.6984 9.13332 33.1957 10.0876C32.6794 11.0658 32.3972 12.0456 32.2912 13.2298C32.2882 13.2638 32.3237 13.2443 32.3264 13.2208C32.4794 12.0218 32.8114 10.9488 33.3987 10.0006C33.8937 9.20083 34.4039 8.61507 35.0287 7.99432C35.0367 7.98682 35.0332 7.97182 35.0234 7.97982Z" fill="#73B634"/>
<path d="M29.9696 6.71686C29.9716 6.70186 29.9551 6.70836 29.9526 6.71836C29.6543 8.01061 29.6361 9.38811 29.8208 10.7071C29.8286 10.7594 29.8813 10.7101 29.8798 10.6724C29.8228 9.36787 29.7716 8.00886 29.9696 6.71686Z" fill="#73B634"/>
<path d="M27.0676 4.67979C27.0626 4.66979 27.0504 4.68329 27.0531 4.69304C27.6309 6.34404 27.8944 8.03429 28.2026 9.78929C28.2069 9.81479 28.2336 9.79229 28.2311 9.77204C28.0354 7.94329 27.7699 6.30554 27.0676 4.67979Z" fill="#73B634"/>
<path d="M25.5077 8.85302C25.5297 7.95202 25.7479 7.11151 25.8944 6.23851C25.8967 6.22351 25.8794 6.23101 25.8769 6.24026C25.6364 7.12451 25.3924 7.94077 25.3697 8.88927C25.3459 9.84952 25.4932 10.8395 25.7064 11.755C25.7114 11.776 25.7374 11.75 25.7342 11.7333C25.5794 10.789 25.4844 9.82052 25.5077 8.85302Z" fill="#73B634"/>
<path d="M24.7609 5.71078C23.9659 6.85678 23.3911 8.12478 23.3614 9.71578C23.3601 9.76703 23.4106 9.73828 23.4136 9.70178C23.5691 8.16653 24.0486 6.92728 24.7679 5.71878C24.7736 5.71078 24.7669 5.70178 24.7609 5.71078Z" fill="#73B634"/>
<path d="M23.3636 5.56875C23.1214 6.0975 22.8366 6.55325 22.6246 7.119C22.4326 7.6315 22.3374 8.19975 22.2739 8.7605C22.2679 8.81975 22.3291 8.78325 22.3361 8.744C22.4549 8.063 22.6279 7.418 22.8654 6.79125C23.0224 6.37525 23.2274 5.9875 23.3769 5.5715C23.3809 5.56 23.3676 5.56 23.3636 5.56875Z" fill="#73B634"/>
<path d="M22.3759 4.89272C21.2959 5.98472 20.6742 7.48797 20.5997 9.28372C20.5982 9.31697 20.6319 9.29722 20.6349 9.27397C20.8454 7.53772 21.4089 6.11947 22.3852 4.90797C22.3922 4.89872 22.3852 4.88297 22.3759 4.89272Z" fill="#73B634"/>
<path d="M19.8561 7.43633C19.4856 8.51558 19.2931 9.63083 19.4401 10.8218C19.4444 10.8593 19.4814 10.8223 19.4814 10.7971C19.4784 9.65382 19.6019 8.52057 19.8729 7.43782C19.8771 7.42057 19.8606 7.42483 19.8561 7.43633Z" fill="#73B634"/>
<path d="M17.523 8.29079C17.5177 8.27779 17.502 8.29504 17.5067 8.30579C17.8382 9.23904 17.968 10.2268 18.1167 11.2293C18.1227 11.2683 18.1622 11.232 18.1607 11.203C18.1047 10.1925 17.9097 9.16954 17.523 8.29079Z" fill="#73B634"/>
<path d="M14.0993 7.28448C13.3988 7.58923 12.8525 8.00298 12.3633 8.71898C11.904 9.39198 11.61 10.3452 11.4925 11.2205C11.4883 11.2537 11.5255 11.2402 11.5295 11.2175C11.89 9.40398 12.8185 8.08298 14.101 7.30198C14.109 7.29773 14.11 7.27973 14.0993 7.28448Z" fill="#73B634"/>
<path d="M11.4528 5.49503C10.9033 6.16178 10.408 6.72028 10.038 7.59678C9.60955 8.61253 9.2988 9.70828 9.19355 10.8635C9.19005 10.9088 9.23655 10.8823 9.24055 10.8513C9.4048 9.72203 9.7568 8.67578 10.159 7.66003C10.497 6.80553 10.9675 6.19428 11.4608 5.50378C11.4668 5.49578 11.4595 5.48778 11.4528 5.49503Z" fill="#73B634"/>
<path d="M10.2439 4.06202C9.21137 5.19927 8.63962 6.99226 8.49637 8.71052C8.49212 8.75676 8.53887 8.72851 8.54312 8.69901C8.79837 7.02176 9.29587 5.29676 10.2474 4.06701C10.2499 4.06376 10.2474 4.05777 10.2439 4.06202Z" fill="#73B634"/>
<path d="M4.83624 4.24622C4.82849 4.23672 4.81649 4.25597 4.82149 4.26522C6.11699 6.46872 6.37399 9.18872 6.53674 11.8717C6.53874 11.9005 6.57249 11.8785 6.57249 11.8567C6.57449 9.26572 6.37974 6.12722 4.83624 4.24622Z" fill="#73B634"/>
<path d="M3.87874 8.14988C3.87574 8.14488 3.86899 8.15413 3.87174 8.15813C4.25774 8.83688 4.51599 9.86888 4.65224 10.6821C4.82124 11.6881 4.97274 12.6664 5.04424 13.6944C5.04649 13.7354 5.09249 13.7019 5.09349 13.6729C5.16974 11.9169 4.81849 9.49913 3.87874 8.14988Z" fill="#73B634"/>
<path d="M1.80743 10.3931C1.79943 10.3851 1.78568 10.4031 1.79318 10.4129C2.60518 11.4406 3.21793 12.7916 3.52518 14.2174C3.53218 14.2499 3.56618 14.2204 3.56318 14.1946C3.38768 12.6464 2.79118 11.2924 1.80743 10.3931Z" fill="#73B634"/>
<path d="M58.9025 9.33654C57.9862 10.119 57.2835 11.3998 56.8837 12.7698C57.0452 11.5733 57.2162 10.3898 57.5172 9.21404C57.7467 8.31479 58.1342 7.61879 58.5595 6.95179C58.7862 6.56629 59.0345 6.19529 59.2775 5.81554C58.4247 6.13529 57.6275 6.62129 56.984 7.44104C56.752 7.83079 56.545 8.25454 56.358 8.69479C56.5177 7.50129 56.818 6.34904 57.3675 5.26779C57.1255 5.45754 56.8975 5.68704 56.6947 5.93529C56.3122 6.56279 55.92 7.47529 55.5402 9.23429C55.5825 8.25229 55.7937 6.20329 55.9385 5.19179C56.1482 4.37254 56.3605 3.23979 56.4337 2.63379C55.8347 3.82154 54.4492 7.21804 54.9135 12.5048C54.7832 11.4013 54.5942 10.3045 54.3275 9.24279C53.9387 7.69979 53.4537 6.32954 52.2635 5.61429C52.679 6.70454 53.5832 9.43779 53.486 12.3753C51.5987 9.58954 52.0547 7.58254 52.0817 6.42054C52.0837 6.31904 50.991 8.30529 51.0542 10.6818C50.3622 9.01554 51.3282 6.54679 51.25 6.59404C50.5175 7.03504 49.9615 7.99754 49.6277 8.92504C49.6035 8.99254 49.5742 9.07679 49.542 9.16879C49.5362 9.17704 49.5292 9.18354 49.523 9.19204C49.7625 8.15429 50.3812 5.93129 50.2807 6.00504C49.7602 6.38829 49.347 6.97129 48.9837 7.62004C49.1747 6.89504 49.4057 6.19554 49.685 5.53904C48.8912 6.00179 48.1807 6.64004 47.6745 7.58604C47.3922 8.21629 47.1535 8.91879 46.9917 9.65154C46.9957 8.66729 47.054 7.40529 47.282 6.35979C47.282 6.35979 45.9942 8.51054 45.9942 11.3873C45.9942 11.3873 45.367 7.76229 43.7982 8.25329C43.7982 8.25329 44.8912 9.84379 44.8912 11.9945C44.8912 11.9945 44.4475 10.6155 43.7337 10.7083C43.7337 10.7083 44.2312 11.715 44.2312 12.7903C44.2312 12.7903 44.199 12.7223 44.138 12.6195C43.946 11.669 43.5217 10.7793 42.7555 10.6055C42.7502 10.6043 42.7442 10.6053 42.7387 10.6053C43.023 10.8673 43.124 11.4008 43.2092 11.8135C43.3592 12.539 43.3812 13.2795 43.2677 14.016C43.2597 14.069 43.2017 14.0748 43.1827 14.031C42.8337 13.232 42.6145 12.3625 42.5687 11.4493C42.5245 11.4243 42.4637 11.4333 42.3755 11.4943C42.1465 11.6523 41.9387 12.0285 41.773 12.3625C41.698 11.0013 43.1787 9.82554 43.1572 9.76904C42.7185 9.70879 42.3407 9.74504 41.8095 10.2003C41.0732 10.831 40.7492 11.7413 40.7822 11.5443C41.0067 10.1783 41.6887 9.05029 42.5235 8.20604C41.8867 8.19329 41.1997 8.54079 40.594 9.02304C41.0172 8.32104 42.0375 6.75479 41.898 6.81729C40.7792 7.32054 39.523 8.59754 38.8135 10.12C38.9905 9.04404 39.4232 7.21004 40.3955 6.28629C40.3955 6.28629 38.7285 6.44904 37.5757 10.191C37.8022 8.78504 38.7495 5.80454 39.4195 4.91954C39.505 4.80754 38.0997 4.70129 36.8837 8.63454C36.9047 7.28329 37.341 4.06979 37.6382 2.70729C37.6382 2.70729 36.6982 4.12404 36.2147 7.02079C36.214 7.01904 35.8617 9.15354 35.8562 10.0178C35.6885 9.03504 34.6967 4.90154 32.826 4.89754C32.826 4.89754 35.2555 6.63204 34.9487 13.0225C34.9487 13.0225 34.1317 8.37804 32.2367 8.08804C32.2367 8.08804 33.9697 10.51 33.7322 13.6785C33.7322 13.6785 33.1307 10.3278 30.209 10.3503C30.209 10.3503 32.3712 12.0268 32.6852 15.1895H57.7215C57.866 14.5713 58.034 13.9698 58.2367 13.392C58.8095 11.2855 59.7647 9.44204 61.2407 8.00654C60.5522 7.86479 59.3325 8.97004 58.9025 9.33654Z" fill="#73B634"/>
<path d="M42.5683 11.448C42.557 11.442 42.545 11.4375 42.532 11.436C42.3743 11.8708 42.4865 12.5003 42.579 12.9193C42.7208 13.5613 42.946 14.2053 43.3308 14.66C43.3118 14.4553 43.263 14.2573 43.2415 14.0518C43.2205 14.0633 43.1945 14.0573 43.1825 14.0298C42.8333 13.2308 42.614 12.3613 42.5683 11.448Z" fill="#497F34"/>
<path d="M32.4023 8.125C33.2296 8.59825 33.8033 9.703 34.1911 10.7257C34.6058 11.8177 34.8661 13.009 34.9496 14.2225C34.9716 13.7817 34.9778 13.3417 34.9518 12.904C34.9498 12.9442 34.9496 12.9817 34.9483 13.0215C34.9483 13.0215 34.1791 8.65025 32.4023 8.125Z" fill="#497F34"/>
<path d="M32.9487 12.3508C33.1254 12.6903 33.2707 13.0493 33.3927 13.421C33.5414 13.7823 33.6727 14.1573 33.7942 14.538C33.7932 14.2423 33.7742 13.948 33.7342 13.6575C33.7329 13.6638 33.7329 13.6705 33.7329 13.677C33.7329 13.677 33.1904 10.6628 30.6387 10.3735C30.7584 10.4073 30.8787 10.447 30.9954 10.5013C31.2724 10.629 31.5447 10.7798 31.7972 10.9758C32.2504 11.3293 32.6499 11.778 32.9487 12.3508Z" fill="#497F34"/>
<path d="M33.8385 5.61748C34.2677 6.09123 34.639 6.66798 34.9225 7.30173C35.3902 8.34848 35.7162 9.54198 35.8265 10.7552C35.8635 10.4332 35.8997 10.1125 35.8645 9.78823C35.8595 9.87073 35.8575 9.94848 35.8567 10.0162C35.696 9.07198 34.7737 5.22348 33.043 4.91748C33.3422 5.08848 33.6285 5.38523 33.8385 5.61748Z" fill="#497F34"/>
<path d="M36.4875 8.06951C36.395 9.53701 36.4333 11.021 36.6258 12.4718C36.6115 11.7998 36.5965 11.1273 36.6765 10.4625C36.695 10.3098 36.7135 10.1575 36.7338 10.0055C36.767 9.45326 36.8188 8.90326 36.8925 8.35676C36.9543 6.98476 37.3068 4.37126 37.5798 2.98926C37.007 4.61476 36.6013 6.26776 36.4875 8.06951Z" fill="#497F34"/>
<path d="M38.6271 6.02659C38.2666 6.61159 37.9844 7.26909 37.7731 7.96684C37.4136 9.15359 37.1909 10.4576 37.2496 11.7406C37.3234 11.0321 37.4756 10.3388 37.6761 9.67209C37.9804 8.28009 38.6891 6.11334 39.2649 5.15234C39.0381 5.42659 38.8211 5.71359 38.6271 6.02659Z" fill="#497F34"/>
<path d="M40.3468 6.33545C39.9193 6.55445 39.5145 7.06695 39.2533 7.4957C38.8953 8.08245 38.6215 8.77745 38.4595 9.4972C38.1963 10.6719 37.9898 12.0797 38.3005 13.2782C38.3428 12.1217 38.534 11.0054 38.8455 9.92695C39.038 8.8557 39.464 7.2187 40.3468 6.33545Z" fill="#497F34"/>
<path d="M42.4607 8.271C42.0889 8.4725 41.7132 8.684 41.3897 8.99575C40.9962 9.375 40.7039 9.88375 40.5007 10.4622C40.1222 11.5435 39.8957 12.986 40.2919 14.1147C40.3327 13.2237 40.5117 12.356 40.7999 11.5495C40.7827 11.5765 40.7767 11.5775 40.7827 11.5432C41.0017 10.2122 41.6544 9.108 42.4607 8.271Z" fill="#497F34"/>
<path d="M41.4015 11.9156C41.1202 12.8371 40.9587 14.0106 41.266 14.9589C41.3442 14.0314 41.4807 13.1204 41.8055 12.2984C41.7945 12.3194 41.7837 12.3406 41.7732 12.3611C41.6982 10.9999 43.179 9.82414 43.1575 9.76764C43.1505 9.76689 43.1437 9.76589 43.1372 9.76514C42.824 10.0044 42.494 10.2151 42.2055 10.5034C41.8395 10.8701 41.5715 11.3574 41.4015 11.9156Z" fill="#497F34"/>
<path d="M42.9316 10.6616C43.2171 10.8736 43.4611 11.2751 43.6194 11.5726C43.9499 12.1944 44.0936 12.9599 44.1409 13.7114C44.2209 13.3579 44.2634 12.9779 44.2251 12.6156C44.2284 12.6736 44.2304 12.7309 44.2304 12.7894C44.2304 12.7894 44.1981 12.7214 44.1371 12.6186C43.9601 11.7434 43.5864 10.9234 42.9316 10.6616Z" fill="#497F34"/>
<path d="M45.2891 10.1539C45.6439 11.1697 45.7624 12.2637 45.7946 13.3677C45.9334 12.6887 46.0104 11.9884 45.9764 11.2939C45.8669 10.7399 45.2291 7.86644 43.8379 8.24344C44.4889 8.64294 44.9831 9.27819 45.2891 10.1539Z" fill="#497F34"/>
<path d="M47.2162 13.3327C47.0084 12.13 46.8852 10.8515 46.9994 9.62273C46.9967 9.63173 46.9944 9.64148 46.9927 9.65073C46.9959 8.78973 47.0407 7.71673 47.2047 6.76123C46.6297 8.89348 46.4489 11.2675 47.2162 13.3327Z" fill="#497F34"/>
<path d="M48.3579 8.30678C48.1279 9.44478 47.9957 10.7013 48.2485 11.8505C48.3477 10.2905 48.5397 8.71928 49.1327 7.36203C49.0814 7.44628 49.0322 7.53178 48.9829 7.61928C49.1704 6.91028 49.3957 6.22628 49.6667 5.58203C49.0022 6.28678 48.5799 7.20653 48.3579 8.30678Z" fill="#497F34"/>
<path d="M49.2412 11.5435C49.2797 10.7427 49.3629 9.95196 49.5239 9.18946C49.5227 9.18971 49.5227 9.19047 49.5224 9.19122C49.5299 9.15747 49.5379 9.12321 49.5469 9.08796C49.5809 8.93146 49.6192 8.77571 49.6602 8.62196C49.9394 7.50596 50.3644 5.94247 50.2802 6.00422C50.2544 6.02297 50.2289 6.04546 50.2029 6.06596C49.7897 6.82746 49.5019 7.71597 49.3324 8.61472C49.1537 9.56797 49.0807 10.5797 49.2412 11.5435Z" fill="#497F34"/>
<path d="M51.452 12.4329C51.3032 11.7542 51.1208 11.0829 51.052 10.3907C51.0508 10.4867 51.0508 10.5834 51.0533 10.6812C50.3613 9.01494 51.3272 6.54619 51.249 6.59344C51.231 6.60394 51.2128 6.61669 51.1958 6.62794C50.7103 7.32869 50.5628 8.39919 50.5478 9.30894C50.5288 10.4704 50.8182 11.6117 51.452 12.4329Z" fill="#497F34"/>
<path d="M52.0825 6.42019C52.0825 6.41419 52.0775 6.41694 52.07 6.42594C51.697 7.81569 51.6445 9.32019 52.0243 10.7264C52.2138 11.4282 52.4943 12.0907 52.9143 12.6037C53.1913 12.9422 53.5123 13.3779 53.8908 13.5264C53.724 13.1522 53.5953 12.7582 53.487 12.3532C53.4868 12.3602 53.4868 12.3682 53.4868 12.3752C51.5995 9.58944 52.0555 7.58244 52.0825 6.42019Z" fill="#497F34"/>
<path d="M53.1878 6.92111C53.4918 7.60961 53.729 8.35386 53.9373 9.09886C54.1648 9.90861 54.3488 10.7416 54.4625 11.5921C54.5558 12.2906 54.537 12.9949 54.5915 13.6944C54.7145 13.0674 54.8445 12.4241 54.8193 11.7774C54.6975 10.9201 54.5368 10.0701 54.3285 9.24236C53.9535 7.75261 53.4863 6.42586 52.3848 5.69336C52.6923 6.05411 52.9723 6.43111 53.1878 6.92111Z" fill="#497F34"/>
<path d="M55.3613 9.66204C55.3703 10.309 55.3916 10.963 55.5403 11.5808C55.5923 10.4935 55.6156 9.40379 55.7556 8.33079C55.6836 8.60479 55.6126 8.90454 55.5411 9.23429C55.5833 8.25229 55.7946 6.20329 55.9393 5.19179C56.1491 4.37254 56.3613 3.23979 56.4346 2.63379C56.4111 2.67954 56.3871 2.72954 56.3613 2.78154C55.8738 4.16904 55.5453 5.69204 55.4133 7.19879C55.3411 8.02129 55.3496 8.83704 55.3613 9.66204Z" fill="#497F34"/>
<path d="M58.5599 6.95149C58.7796 6.57899 59.0179 6.21999 59.2529 5.85449C58.1589 6.73424 57.2894 8.02249 56.8706 9.62374C56.6546 10.45 56.5329 11.3325 56.5071 12.2052C56.4829 13.0152 56.5351 13.8677 56.8539 14.578C56.8769 13.863 56.8891 13.1385 56.9886 12.4395C56.9524 12.5492 56.9171 12.6592 56.8841 12.7697C57.0456 11.5732 57.2166 10.3897 57.5176 9.21399C57.7471 8.31474 58.1346 7.61874 58.5599 6.95149Z" fill="#497F34"/>
<path d="M60.5332 8.47438C60.2067 8.70663 59.9037 8.99538 59.6304 9.32313C59.1099 9.94688 58.6622 10.6734 58.3354 11.4921C57.8757 12.6441 57.6282 13.9046 57.5547 15.1881H57.7207C57.8652 14.5699 58.0332 13.9684 58.2359 13.3906C58.7897 11.3544 59.7027 9.56488 61.0959 8.15088C60.9057 8.25138 60.7134 8.34613 60.5332 8.47438Z" fill="#497F34"/>
<path d="M56.0184 11.6526C56.1144 10.6301 56.1431 9.57333 56.3719 8.60708C56.5346 7.44458 56.8316 6.32258 57.3684 5.26758C57.2894 5.32908 57.2136 5.39558 57.1384 5.46483C56.6514 6.34833 56.2849 7.28383 56.0926 8.36783C55.9074 9.42033 55.7724 10.5961 56.0184 11.6526Z" fill="#497F34"/>
<path d="M43.7344 10.7071C43.7344 10.7071 43.7386 10.7166 43.7456 10.7323C44.0729 11.0861 44.3871 11.4561 44.5256 12.0036C44.6916 12.6613 44.7249 13.3446 44.7309 14.0316C44.8784 13.6238 44.9169 13.1578 44.9311 12.7108C44.9431 12.3331 44.8604 12.0066 44.7654 11.6731C44.5856 11.2721 44.2236 10.6438 43.7344 10.7071Z" fill="#497F34"/>
<path d="M39.9578 9.20982C39.4953 10.1576 39.1192 11.2573 39.0625 12.3921C39.2868 11.5628 39.4995 10.7108 39.8955 9.99356C40.1175 9.59256 40.3743 9.23432 40.6585 8.91557C41.0748 8.23532 41.883 6.98482 41.9098 6.83057C41.1443 7.44407 40.4438 8.21407 39.9578 9.20982Z" fill="#497F34"/>
<path d="M58.4012 6.4222C58.0165 6.69345 57.6702 6.9327 57.3235 7.2882C57.0232 7.5962 56.7802 8.1142 56.6142 8.55295C56.602 8.5862 56.6315 8.59595 56.6442 8.56845C57.087 7.6257 57.7102 7.0332 58.406 6.44245C58.4137 6.4352 58.4122 6.4142 58.4012 6.4222Z" fill="#73B634"/>
<path d="M59.4101 9.08114C58.7891 9.58839 58.2881 10.0586 57.8618 10.8674C57.4248 11.6956 57.1853 12.5261 57.0958 13.5294C57.0936 13.5579 57.1236 13.5414 57.1258 13.5216C57.2556 12.5051 57.5366 11.5969 58.0341 10.7931C58.4531 10.1159 58.8858 9.61989 59.4151 9.09364C59.4213 9.08689 59.4183 9.07414 59.4101 9.08114Z" fill="#73B634"/>
<path d="M55.1277 8.01116C55.1297 7.99891 55.1152 8.00415 55.1135 8.0124C54.8602 9.1069 54.8455 10.2744 55.002 11.3914C55.0082 11.4359 55.0532 11.3944 55.052 11.3627C55.003 10.2572 54.96 9.10591 55.1277 8.01116Z" fill="#73B634"/>
<path d="M52.6685 6.28543C52.6648 6.27643 52.6545 6.28843 52.6565 6.29618C53.1458 7.69493 53.3695 9.12694 53.6305 10.6144C53.634 10.6359 53.6565 10.6159 53.655 10.5997C53.4885 9.05018 53.2643 7.66243 52.6685 6.28543Z" fill="#73B634"/>
<path d="M51.3476 9.82072C51.3663 9.05772 51.5511 8.34572 51.6756 7.60622C51.6771 7.59322 51.6628 7.59922 51.6606 7.60722C51.4571 8.35672 51.2501 9.04747 51.2306 9.85147C51.2108 10.665 51.3356 11.5035 51.5161 12.2797C51.5203 12.2965 51.5423 12.2752 51.5401 12.261C51.4086 11.4607 51.3273 10.64 51.3476 9.82072Z" fill="#73B634"/>
<path d="M50.7148 7.15877C50.0418 8.13002 49.5546 9.20402 49.5293 10.5528C49.5286 10.5955 49.5708 10.5713 49.5741 10.54C49.7053 9.23977 50.1118 8.19002 50.7211 7.16577C50.7258 7.15877 50.7196 7.15152 50.7148 7.15877Z" fill="#73B634"/>
<path d="M49.5314 7.03834C49.3254 7.48634 49.0846 7.87284 48.9049 8.35234C48.7421 8.78709 48.6611 9.26809 48.6079 9.74309C48.6021 9.79359 48.6544 9.76259 48.6596 9.72909C48.7606 9.15134 48.9074 8.60534 49.1084 8.07434C49.2414 7.72209 49.4151 7.39334 49.5416 7.04109C49.5456 7.03109 49.5349 7.03109 49.5314 7.03834Z" fill="#73B634"/>
<path d="M48.6947 6.46566C47.7797 7.39041 47.2532 8.66416 47.1895 10.1852C47.189 10.2144 47.217 10.1979 47.2195 10.1777C47.398 8.70641 47.8752 7.50466 48.7025 6.47891C48.7087 6.47016 48.7022 6.45716 48.6947 6.46566Z" fill="#73B634"/>
<path d="M46.5588 8.62069C46.2443 9.53494 46.0813 10.4802 46.2063 11.4889C46.2105 11.5204 46.2415 11.4894 46.2415 11.4679C46.2385 10.4994 46.3433 9.53844 46.5723 8.62194C46.5763 8.60669 46.5615 8.61069 46.5588 8.62069Z" fill="#73B634"/>
<path d="M44.5833 9.34427C44.5783 9.33427 44.566 9.34828 44.5688 9.35728C44.85 10.148 44.9603 10.9848 45.0863 11.8338C45.0913 11.8668 45.125 11.8365 45.123 11.8118C45.0755 10.9568 44.9108 10.089 44.5833 9.34427Z" fill="#73B634"/>
<path d="M41.6817 8.49168C41.0879 8.75068 40.6247 9.10118 40.2107 9.70768C39.8212 10.2779 39.5727 11.0854 39.4729 11.8274C39.4694 11.8554 39.5004 11.8439 39.5039 11.8244C39.8094 10.2882 40.5959 9.16868 41.6829 8.50668C41.6894 8.50318 41.6907 8.48843 41.6817 8.49168Z" fill="#73B634"/>
<path d="M39.4394 6.97615C38.9739 7.54015 38.5544 8.01415 38.2406 8.75665C37.8779 9.61715 37.6146 10.5457 37.5256 11.5239C37.5221 11.5624 37.5619 11.5399 37.5656 11.5137C37.7044 10.5567 38.0034 9.6704 38.3431 8.8104C38.6294 8.08565 39.0284 7.56815 39.4461 6.9834C39.4511 6.9764 39.4451 6.9699 39.4394 6.97615Z" fill="#73B634"/>
<path d="M38.4163 5.76173C37.5415 6.72623 37.0573 8.24423 36.9358 9.70023C36.9323 9.73923 36.9718 9.71599 36.9753 9.69024C37.1915 8.26949 37.6125 6.80873 38.4193 5.76598C38.421 5.76323 38.4193 5.75873 38.4163 5.76173Z" fill="#73B634"/>
<path d="M33.8356 5.91773C33.8293 5.90948 33.8186 5.92648 33.8236 5.93448C34.9206 7.80073 35.1383 10.1047 35.2768 12.3787C35.2778 12.403 35.3063 12.384 35.3063 12.366C35.3086 10.1705 35.1433 7.51173 33.8356 5.91773Z" fill="#73B634"/>
<path d="M33.0223 9.22517C33.0191 9.22142 33.0141 9.22867 33.0161 9.23242C33.3433 9.80692 33.5618 10.6819 33.6778 11.3704C33.8198 12.2227 33.9483 13.0519 34.0093 13.9222C34.0116 13.9572 34.0506 13.9282 34.0508 13.9047C34.1158 12.4159 33.8178 10.3677 33.0223 9.22517Z" fill="#73B634"/>
<path d="M31.2699 11.126C31.2629 11.1185 31.2511 11.1342 31.2579 11.142C31.9459 12.013 32.4651 13.1577 32.7254 14.3657C32.7306 14.393 32.7599 14.368 32.7576 14.3457C32.6081 13.035 32.1036 11.888 31.2699 11.126Z" fill="#73B634"/>
<path d="M70.6314 8.28139C69.5499 9.20364 68.7209 10.7166 68.2497 12.3331C68.4397 10.9206 68.6417 9.52389 68.9962 8.13664C69.2677 7.07489 69.7247 6.25314 70.2267 5.46614C70.4952 5.01114 70.7874 4.57239 71.0744 4.12514C70.0682 4.50289 69.1262 5.07564 68.3674 6.04389C68.0939 6.50389 67.8492 7.00364 67.6284 7.52314C67.8172 6.11564 68.1709 4.75464 68.8197 3.47839C68.5344 3.70264 68.2652 3.97364 68.0259 4.26664C67.5747 5.00664 67.1119 6.08364 66.6637 8.15989C66.7129 7.00089 66.9624 4.58239 67.1332 3.38889C67.3809 2.42139 67.6314 1.08539 67.7179 0.369141C67.0117 1.77189 65.3759 5.78014 65.9234 12.0206C65.7697 10.7184 65.5469 9.42364 65.2312 8.17089C64.7734 6.34864 64.2007 4.73114 62.7959 3.88839C63.2864 5.17514 64.3529 8.40114 64.2387 11.8676C62.0114 8.57964 62.5492 6.21089 62.5802 4.83964C62.5832 4.71914 61.2934 7.06364 61.3682 9.86864C60.5517 7.90214 61.6909 4.98839 61.5992 5.04364C60.7347 5.56464 60.0777 6.70014 59.6839 7.79489C59.6557 7.87414 59.6207 7.97414 59.5834 8.08239C59.5762 8.09189 59.5674 8.09964 59.5604 8.10939C59.8434 6.88464 60.5732 4.26114 60.4552 4.34764C59.8412 4.80064 59.3532 5.48864 58.9244 6.25389C59.1504 5.39864 59.4227 4.57339 59.7522 3.79764C58.8152 4.34414 57.9762 5.09789 57.3794 6.21414C57.0459 6.95839 56.7644 7.78739 56.5727 8.65214C56.5777 7.49039 56.6459 6.00114 56.9154 4.76664C56.9154 4.76664 55.3957 7.30589 55.3957 10.7004C55.3957 10.7004 54.6549 6.42189 52.8034 7.00164C52.8034 7.00164 54.0934 8.87914 54.0934 11.4179C54.0934 11.4179 53.5697 9.78964 52.7269 9.89914C52.7269 9.89914 53.3142 11.0874 53.3142 12.3569C53.3142 12.3569 53.2767 12.2759 53.2049 12.1554C52.9774 11.0329 52.4769 9.98239 51.5729 9.77814C51.5662 9.77639 51.5597 9.77664 51.5527 9.77664C51.8884 10.0866 52.0069 10.7166 52.1082 11.2036C52.2849 12.0599 52.3114 12.9336 52.1774 13.8036C52.1677 13.8659 52.0992 13.8721 52.0772 13.8209C51.6647 12.8781 51.4069 11.8509 51.3522 10.7736C51.3002 10.7441 51.2287 10.7549 51.1242 10.8271C50.8539 11.0134 50.6084 11.4574 50.4127 11.8519C50.3247 10.2456 52.0724 8.85739 52.0469 8.79014C51.5289 8.71939 51.0837 8.76264 50.4562 9.29939C49.5877 10.0444 49.2052 11.1184 49.2432 10.8856C49.5079 9.27389 50.3132 7.94239 51.2989 6.94564C50.5472 6.93064 49.7367 7.34064 49.0214 7.90989C49.5212 7.08164 50.7254 5.23239 50.5607 5.30614C49.2397 5.89989 47.7569 7.40664 46.9192 9.20364C47.1297 7.93464 47.6397 5.76914 48.7867 4.67964C48.7867 4.67964 46.8194 4.87189 45.4584 9.28864C45.7264 7.62939 46.8444 4.11064 47.6354 3.06639C47.7364 2.93389 46.0769 2.80839 44.6422 7.45064C44.6667 5.85614 45.1819 2.06314 45.5327 0.454891C45.5327 0.454891 44.4229 2.12714 43.8519 5.54589C43.8512 5.54414 43.4359 8.06439 43.4294 9.08414C43.2312 7.92364 42.0604 3.04464 39.8524 3.04014C39.8524 3.04014 42.7199 5.08664 42.3574 12.6309C42.3574 12.6309 41.3939 7.14814 39.1569 6.80564C39.1569 6.80564 41.2029 9.66439 40.9227 13.4044C40.9227 13.4044 40.2127 9.44939 36.7637 9.47564C36.7637 9.47564 39.3164 11.4546 39.6869 15.1879H69.2382C69.4077 14.4581 69.6064 13.7479 69.8457 13.0659C70.5217 10.5804 71.6497 8.40464 73.3914 6.70989C72.5792 6.54389 71.1389 7.84839 70.6314 8.28139Z" fill="#73B634"/>
<path d="M51.3526 10.7733C51.3393 10.7658 51.3253 10.7613 51.3093 10.7593C51.124 11.2725 51.2563 12.0155 51.3658 12.5095C51.5333 13.2678 51.7988 14.028 52.253 14.5645C52.2305 14.3235 52.1725 14.0895 52.1473 13.8468C52.123 13.8603 52.091 13.8535 52.0778 13.8205C51.665 12.878 51.4073 11.8508 51.3526 10.7733Z" fill="#497F34"/>
<path d="M39.3535 6.85059C40.3298 7.40909 41.006 8.71308 41.4643 9.92033C41.9543 11.2098 42.2605 12.6151 42.3593 14.0476C42.3853 13.5278 42.3935 13.0078 42.3623 12.4916C42.3605 12.5388 42.3593 12.5828 42.3573 12.6308C42.3573 12.6308 41.45 7.46984 39.3535 6.85059Z" fill="#497F34"/>
<path d="M39.9963 11.8389C40.205 12.2396 40.3758 12.6636 40.5203 13.1024C40.696 13.5291 40.8508 13.9721 40.9945 14.4214C40.9935 14.0716 40.9705 13.7241 40.923 13.3816C40.9223 13.3894 40.9223 13.3966 40.922 13.4044C40.922 13.4044 40.2813 9.84638 37.2695 9.50488C37.4118 9.54488 37.553 9.59138 37.6918 9.65538C38.0183 9.80638 38.3398 9.98413 38.637 10.2161C39.1728 10.6334 39.6435 11.1629 39.9963 11.8389Z" fill="#497F34"/>
<path d="M41.0481 3.89243C41.5546 4.45093 41.9926 5.13118 42.3271 5.87918C42.8791 7.11493 43.2644 8.52418 43.3949 9.95568C43.4384 9.57593 43.4814 9.19718 43.4394 8.81493C43.4349 8.91218 43.4314 9.00368 43.4306 9.08418C43.2411 7.96968 42.1524 3.42693 40.1094 3.06543C40.4624 3.26668 40.8004 3.61793 41.0481 3.89243Z" fill="#497F34"/>
<path d="M44.1759 6.78558C44.0669 8.51758 44.1114 10.2696 44.3394 11.9816C44.3229 11.1886 44.3042 10.3948 44.3992 9.61032C44.4209 9.42982 44.4434 9.25032 44.4652 9.07082C44.5052 8.41907 44.5669 7.76983 44.6534 7.12408C44.7269 5.50508 45.1429 2.42082 45.4647 0.788574C44.7894 2.70782 44.3102 4.65908 44.1759 6.78558Z" fill="#497F34"/>
<path d="M46.699 4.37452C46.2738 5.06452 45.9405 5.84102 45.6913 6.66427C45.2675 8.06552 45.0043 9.60427 45.0735 11.1185C45.1608 10.2825 45.3405 9.46452 45.577 8.67727C45.9355 7.03452 46.7723 4.47677 47.453 3.34277C47.185 3.66552 46.9278 4.00477 46.699 4.37452Z" fill="#497F34"/>
<path d="M48.7301 4.73926C48.2256 4.99751 47.7483 5.60301 47.4396 6.10826C47.0166 6.80101 46.6931 7.62151 46.5028 8.47151C46.1918 9.85776 45.9483 11.5185 46.3148 12.9345C46.3643 11.5695 46.5906 10.2515 46.9588 8.97776C47.1856 7.71401 47.6881 5.78101 48.7301 4.73926Z" fill="#497F34"/>
<path d="M51.2256 7.02393C50.7864 7.26218 50.3429 7.51142 49.9609 7.87967C49.4969 8.32717 49.1511 8.92742 48.9124 9.61042C48.4654 10.8864 48.1976 12.5889 48.6649 13.9209C48.7131 12.8697 48.9251 11.8449 49.2646 10.8942C49.2444 10.9257 49.2376 10.9274 49.2444 10.8857C49.5026 9.31492 50.2734 8.01143 51.2256 7.02393Z" fill="#497F34"/>
<path d="M49.9737 11.3251C49.6422 12.4124 49.4504 13.7984 49.8137 14.9176C49.9062 13.8226 50.0669 12.7479 50.4499 11.7774C50.4374 11.8021 50.4252 11.8271 50.4124 11.8514C50.3244 10.2451 52.0722 8.85687 52.0467 8.78962C52.0382 8.78862 52.0307 8.78812 52.0219 8.78662C51.6529 9.06962 51.2634 9.31862 50.9229 9.65812C50.4899 10.0914 50.1752 10.6664 49.9737 11.3251Z" fill="#497F34"/>
<path d="M51.7832 9.84473C52.1195 10.0955 52.4077 10.569 52.5945 10.9207C52.9845 11.6547 53.1547 12.5582 53.2095 13.4452C53.3047 13.0282 53.354 12.5792 53.3097 12.1522C53.3127 12.2202 53.315 12.288 53.315 12.357C53.315 12.357 53.2775 12.276 53.2057 12.1555C52.9967 11.1232 52.5555 10.154 51.7832 9.84473Z" fill="#497F34"/>
<path d="M54.5641 9.24571C54.9831 10.4452 55.1223 11.7365 55.1618 13.0392C55.3253 12.2372 55.4153 11.4115 55.3761 10.5917C55.2471 9.93696 54.4941 6.54621 52.8516 6.99071C53.6201 7.46246 54.2033 8.21246 54.5641 9.24571Z" fill="#497F34"/>
<path d="M56.8365 12.998C56.5915 11.5775 56.4462 10.0697 56.581 8.61821C56.5782 8.62971 56.5752 8.64096 56.5732 8.65221C56.5775 7.63621 56.6305 6.36896 56.8237 5.24121C56.146 7.75771 55.932 10.56 56.8365 12.998Z" fill="#497F34"/>
<path d="M58.1872 7.06587C57.9162 8.40912 57.7597 9.89237 58.0587 11.2486C58.1757 9.40712 58.4025 7.55187 59.1027 5.94962C59.0425 6.04987 58.983 6.15112 58.926 6.25362C59.1467 5.41737 59.4132 4.61012 59.7335 3.84912C58.948 4.68187 58.4495 5.76762 58.1872 7.06587Z" fill="#497F34"/>
<path d="M59.2299 10.886C59.2762 9.94079 59.3737 9.00779 59.5637 8.10754C59.5632 8.10779 59.5624 8.10854 59.5617 8.10929C59.5707 8.07029 59.5804 8.03004 59.5904 7.98729C59.6309 7.80304 59.6759 7.61954 59.7244 7.43779C60.0539 6.12079 60.5559 4.27504 60.4564 4.34779C60.4254 4.37054 60.3962 4.39679 60.3659 4.42079C59.8777 5.32004 59.5374 6.36804 59.3377 7.42979C59.1264 8.55379 59.0404 9.74904 59.2299 10.886Z" fill="#497F34"/>
<path d="M61.84 11.9365C61.664 11.1352 61.4488 10.343 61.3673 9.52549C61.3663 9.63899 61.3663 9.75349 61.3693 9.86874C60.5528 7.90224 61.692 4.98849 61.6003 5.04374C61.5785 5.05699 61.5575 5.07074 61.537 5.08424C60.9635 5.91174 60.7898 7.17549 60.7725 8.24924C60.7498 9.61974 61.0915 10.9667 61.84 11.9365Z" fill="#497F34"/>
<path d="M62.5808 4.83976C62.5816 4.83176 62.5756 4.83551 62.5666 4.84601C62.1266 6.48626 62.0643 8.26226 62.5128 9.92101C62.7366 10.7495 63.0671 11.5323 63.5631 12.1378C63.8906 12.5375 64.2691 13.052 64.7161 13.2268C64.5193 12.785 64.3668 12.3198 64.2398 11.8418C64.2391 11.8508 64.2391 11.859 64.2391 11.8678C62.0118 8.57976 62.5498 6.21101 62.5808 4.83976Z" fill="#497F34"/>
<path d="M63.8863 5.43046C64.245 6.24246 64.5245 7.12121 64.7708 8.00096C65.0395 8.95621 65.2568 9.93971 65.3905 10.9427C65.5003 11.7687 65.4787 12.5992 65.5427 13.4257C65.6877 12.6855 65.8415 11.9252 65.812 11.1625C65.6675 10.1502 65.478 9.14746 65.2318 8.17096C64.7895 6.41296 64.238 4.84696 62.9375 3.98096C63.3018 4.40771 63.6315 4.85221 63.8863 5.43046Z" fill="#497F34"/>
<path d="M66.4504 8.66539C66.4612 9.42964 66.4864 10.2011 66.6619 10.9304C66.7234 9.64664 66.7507 8.36114 66.9164 7.09414C66.8314 7.41764 66.7467 7.77139 66.6632 8.15989C66.7124 7.00089 66.9619 4.58239 67.1327 3.38889C67.3804 2.42139 67.6309 1.08539 67.7174 0.369141C67.6902 0.423391 67.6609 0.482642 67.6309 0.544392C67.0559 2.18164 66.6682 3.97889 66.5119 5.75789C66.4267 6.72839 66.4369 7.69164 66.4504 8.66539Z" fill="#497F34"/>
<path d="M70.2279 5.46616C70.4874 5.02666 70.7686 4.60241 71.0459 4.17041C69.7551 5.20941 68.7289 6.73041 68.2346 8.61991C67.9791 9.59516 67.8351 10.6369 67.8049 11.6667C67.7764 12.6232 67.8381 13.6297 68.2136 14.4674C68.2409 13.6234 68.2561 12.7687 68.3734 11.9442C68.3301 12.0729 68.2891 12.2032 68.2509 12.3332C68.4409 10.9207 68.6429 9.52391 68.9974 8.13666C69.2689 7.07491 69.7259 6.25291 70.2279 5.46616Z" fill="#497F34"/>
<path d="M72.558 7.26335C72.1732 7.53785 71.8155 7.87809 71.4932 8.26509C70.8792 9.00109 70.3507 9.8591 69.9642 10.8253C69.4217 12.1848 69.1302 13.6726 69.043 15.1876H69.2395C69.409 14.4578 69.6077 13.7476 69.847 13.0656C70.5005 10.6626 71.5785 8.55035 73.223 6.88135C72.9987 7.00035 72.771 7.11185 72.558 7.26335Z" fill="#497F34"/>
<path d="M67.2259 11.0148C67.3399 9.80852 67.3734 8.56077 67.6429 7.42002C67.8354 6.04877 68.1866 4.72402 68.8191 3.47852C68.7266 3.55127 68.6371 3.63002 68.5481 3.71102C67.9731 4.75452 67.5404 5.85876 67.3141 7.13776C67.0951 8.38026 66.9356 9.76827 67.2259 11.0148Z" fill="#497F34"/>
<path d="M52.7266 9.89877C52.7266 9.89877 52.7318 9.91001 52.7401 9.92876C53.1266 10.3458 53.4976 10.7828 53.6606 11.429C53.8571 12.2063 53.8963 13.0123 53.9031 13.8228C54.0771 13.3418 54.1233 12.7915 54.1396 12.2638C54.1543 11.8188 54.0561 11.4328 53.9443 11.0393C53.7321 10.5655 53.3041 9.82427 52.7266 9.89877Z" fill="#497F34"/>
<path d="M48.2696 8.13198C47.7239 9.25023 47.2801 10.5485 47.2129 11.8877C47.4786 10.9095 47.7289 9.90323 48.1969 9.05623C48.4581 8.58373 48.7619 8.16073 49.0969 7.78423C49.5886 6.98073 50.5424 5.50498 50.5739 5.32373C49.6706 6.04748 48.8431 6.95648 48.2696 8.13198Z" fill="#497F34"/>
<path d="M70.039 4.84132C69.5845 5.16182 69.176 5.44332 68.7668 5.86332C68.4123 6.22682 68.1258 6.83782 67.9293 7.35507C67.9145 7.39507 67.9503 7.40632 67.9653 7.37432C68.4875 6.26132 69.2233 5.56157 70.0445 4.86357C70.0535 4.85682 70.0508 4.83232 70.039 4.84132Z" fill="#73B634"/>
<path d="M71.2327 7.97982C70.4992 8.57857 69.9077 9.13332 69.4044 10.0876C68.8882 11.0658 68.6059 12.0456 68.5002 13.2298C68.4972 13.2638 68.5324 13.2443 68.5357 13.2208C68.6882 12.0218 69.0207 10.9488 69.6074 10.0006C70.1027 9.20083 70.6129 8.61507 71.2377 7.99432C71.2457 7.98682 71.2419 7.97182 71.2327 7.97982Z" fill="#73B634"/>
<path d="M66.1767 6.71686C66.1787 6.70186 66.1617 6.70836 66.1595 6.71836C65.8612 8.01061 65.8432 9.38811 66.028 10.7071C66.0352 10.7594 66.0885 10.7101 66.0865 10.6724C66.0295 9.36787 65.979 8.00886 66.1767 6.71686Z" fill="#73B634"/>
<path d="M63.2749 4.67979C63.2699 4.66979 63.2574 4.68329 63.2602 4.69304C63.8382 6.34404 64.1019 8.03429 64.4097 9.78929C64.4144 9.81479 64.4407 9.79229 64.4384 9.77204C64.2427 7.94329 63.9774 6.30554 63.2749 4.67979Z" fill="#73B634"/>
<path d="M61.7143 8.85302C61.7363 7.95202 61.9551 7.11151 62.1011 6.23851C62.1038 6.22351 62.0861 6.23101 62.0838 6.24026C61.8436 7.12451 61.5993 7.94077 61.5768 8.88927C61.5526 9.84952 61.7003 10.8395 61.9133 11.755C61.9183 11.776 61.9443 11.75 61.9413 11.7333C61.7866 10.789 61.6911 9.82052 61.7143 8.85302Z" fill="#73B634"/>
<path d="M60.9698 5.71078C60.1746 6.85678 59.5998 8.12478 59.5703 9.71578C59.5688 9.76703 59.6198 9.73828 59.6228 9.70178C59.7778 8.16653 60.2578 6.92728 60.9768 5.71878C60.9821 5.71078 60.9758 5.70178 60.9698 5.71078Z" fill="#73B634"/>
<path d="M59.5721 5.56875C59.3298 6.0975 59.0456 6.55325 58.8336 7.119C58.6413 7.6315 58.5461 8.19975 58.4828 8.7605C58.4771 8.81975 58.5376 8.78325 58.5451 8.744C58.6638 8.063 58.8366 7.418 59.0738 6.79125C59.2311 6.37525 59.4363 5.9875 59.5858 5.5715C59.5898 5.56 59.5766 5.56 59.5721 5.56875Z" fill="#73B634"/>
<path d="M58.5834 4.89272C57.5029 5.98472 56.8817 7.48797 56.8067 9.28372C56.8054 9.31697 56.8389 9.29722 56.8419 9.27397C57.0527 7.53772 57.6162 6.11947 58.5927 4.90797C58.5997 4.89872 58.5927 4.88297 58.5834 4.89272Z" fill="#73B634"/>
<path d="M56.0634 7.43633C55.6927 8.51558 55.4999 9.63083 55.6474 10.8218C55.6517 10.8593 55.6887 10.8223 55.6887 10.7971C55.6854 9.65382 55.8092 8.52057 56.0802 7.43782C56.0842 7.42057 56.0674 7.42483 56.0634 7.43633Z" fill="#73B634"/>
<path d="M53.7304 8.29079C53.7251 8.27779 53.7094 8.29504 53.7136 8.30579C54.0456 9.23904 54.1749 10.2268 54.3241 11.2293C54.3299 11.2683 54.3694 11.232 54.3676 11.203C54.3116 10.1925 54.1171 9.16954 53.7304 8.29079Z" fill="#73B634"/>
<path d="M50.3061 7.28448C49.6053 7.58923 49.0596 8.00298 48.5703 8.71898C48.1106 9.39198 47.8171 10.3452 47.6996 11.2205C47.6953 11.2537 47.7326 11.2402 47.7366 11.2175C48.0971 9.40398 49.0256 8.08298 50.3081 7.30198C50.3156 7.29773 50.3166 7.27973 50.3061 7.28448Z" fill="#73B634"/>
<path d="M47.6599 5.49503C47.1104 6.16178 46.6149 6.72028 46.2451 7.59678C45.8164 8.61253 45.5054 9.70828 45.4006 10.8635C45.3966 10.9088 45.4436 10.8823 45.4476 10.8513C45.6116 9.72203 45.9641 8.67578 46.3659 7.66003C46.7036 6.80553 47.1746 6.19428 47.6676 5.50378C47.6739 5.49578 47.6669 5.48778 47.6599 5.49503Z" fill="#73B634"/>
<path d="M46.4511 4.06202C45.4184 5.19927 44.8469 6.99226 44.7034 8.71052C44.6994 8.75676 44.7459 8.72851 44.7499 8.69901C45.0056 7.02176 45.5024 5.29676 46.4541 4.06701C46.4569 4.06376 46.4544 4.05777 46.4511 4.06202Z" fill="#73B634"/>
<path d="M41.0429 4.24622C41.0354 4.23672 41.0234 4.25597 41.0286 4.26522C42.3236 6.46872 42.5806 9.18872 42.7434 11.8717C42.7454 11.9005 42.7796 11.8785 42.7796 11.8567C42.7814 9.26572 42.5869 6.12722 41.0429 4.24622Z" fill="#73B634"/>
<path d="M40.0856 8.14988C40.0826 8.14488 40.0764 8.15413 40.0786 8.15813C40.4651 8.83688 40.7234 9.86888 40.8594 10.6821C41.0281 11.6881 41.1796 12.6664 41.2511 13.6944C41.2539 13.7354 41.2996 13.7019 41.3009 13.6729C41.3766 11.9169 41.0259 9.49913 40.0856 8.14988Z" fill="#73B634"/>
<path d="M38.0148 10.3931C38.0063 10.3851 37.993 10.4031 38 10.4129C38.8125 11.4406 39.4253 12.7916 39.732 14.2174C39.739 14.2499 39.7733 14.2204 39.77 14.1946C39.595 12.6464 38.998 11.2924 38.0148 10.3931Z" fill="#73B634"/>
<path d="M95.1098 9.33654C94.1935 10.119 93.4913 11.3998 93.0918 12.7698C93.2528 11.5733 93.4238 10.3898 93.7243 9.21404C93.9545 8.31479 94.3418 7.61879 94.767 6.95179C94.9943 6.56629 95.2423 6.19529 95.485 5.81554C94.6325 6.13529 93.8348 6.62129 93.192 7.44104C92.9598 7.83079 92.7523 8.25454 92.5655 8.69479C92.725 7.50129 93.025 6.34904 93.5748 5.26779C93.333 5.45754 93.105 5.68704 92.9023 5.93529C92.52 6.56279 92.1275 7.47529 91.7478 9.23429C91.79 8.25229 92.0015 6.20329 92.146 5.19179C92.3558 4.37254 92.5685 3.23979 92.6415 2.63379C92.0428 3.82154 90.6568 7.21804 91.1213 12.5048C90.9908 11.4013 90.802 10.3045 90.5348 9.24279C90.1465 7.69979 89.661 6.32954 88.4715 5.61429C88.8868 6.70454 89.7908 9.43779 89.6938 12.3753C87.8068 9.58954 88.2628 7.58254 88.2895 6.42054C88.2913 6.31904 87.199 8.30529 87.2618 10.6818C86.5703 9.01554 87.5355 6.54679 87.4575 6.59404C86.7253 7.03504 86.169 7.99754 85.8355 8.92504C85.811 8.99254 85.7815 9.07679 85.7498 9.16879C85.7435 9.17704 85.737 9.18354 85.7308 9.19204C85.9703 8.15429 86.5888 5.93129 86.4888 6.00504C85.9683 6.38829 85.5548 6.97129 85.1918 7.62004C85.3828 6.89504 85.6138 6.19554 85.893 5.53904C85.0993 6.00179 84.3885 6.64004 83.8823 7.58604C83.6 8.21629 83.361 8.91879 83.1993 9.65154C83.203 8.66729 83.2615 7.40529 83.4898 6.35979C83.4898 6.35979 82.202 8.51054 82.202 11.3873C82.202 11.3873 81.5745 7.76229 80.0055 8.25329C80.0055 8.25329 81.0988 9.84379 81.0988 11.9945C81.0988 11.9945 80.6548 10.6155 79.9408 10.7083C79.9408 10.7083 80.4385 11.715 80.4385 12.7903C80.4385 12.7903 80.4065 12.7223 80.3455 12.6195C80.1533 11.669 79.7288 10.7793 78.963 10.6055C78.9575 10.6043 78.9513 10.6053 78.9463 10.6053C79.2303 10.8673 79.331 11.4008 79.4165 11.8135C79.5663 12.539 79.588 13.2795 79.4748 14.016C79.4673 14.069 79.409 14.0748 79.39 14.031C79.041 13.232 78.822 12.3625 78.776 11.4493C78.7318 11.4243 78.671 11.4333 78.5828 11.4943C78.3535 11.6523 78.1463 12.0285 77.98 12.3625C77.9055 11.0013 79.386 9.82554 79.3648 9.76904C78.926 9.70879 78.5483 9.74504 78.017 10.2003C77.2805 10.831 76.9563 11.7413 76.9893 11.5443C77.214 10.1783 77.896 9.05029 78.731 8.20604C78.094 8.19329 77.4073 8.54079 76.8015 9.02304C77.2243 8.32104 78.2448 6.75479 78.1053 6.81729C76.9863 7.32054 75.7303 8.59754 75.0205 10.12C75.198 9.04404 75.6305 7.21004 76.6025 6.28629C76.6025 6.28629 74.9358 6.44904 73.7828 10.191C74.0098 8.78504 74.9568 5.80454 75.627 4.91954C75.7125 4.80754 74.307 4.70129 73.0913 8.63454C73.1123 7.28329 73.5483 4.06979 73.8458 2.70729C73.8458 2.70729 72.9058 4.12404 72.4218 7.02079C72.4213 7.01904 72.069 9.15354 72.0638 10.0178C71.896 9.03504 70.9043 4.90154 69.0333 4.89754C69.0333 4.89754 71.463 6.63204 71.1558 13.0225C71.1558 13.0225 70.339 8.37804 68.4443 8.08804C68.4443 8.08804 70.1773 10.51 69.9398 13.6785C69.9398 13.6785 69.338 10.3278 66.416 10.3503C66.416 10.3503 68.5788 12.0268 68.8928 15.1895H93.9288C94.073 14.5713 94.2415 13.9698 94.4438 13.392C95.017 11.2855 95.9723 9.44204 97.4483 8.00654C96.7595 7.86479 95.54 8.97004 95.1098 9.33654Z" fill="#73B634"/>
<path d="M78.7754 11.448C78.7639 11.442 78.7521 11.4375 78.7391 11.436C78.5814 11.8708 78.6934 12.5003 78.7864 12.9193C78.9281 13.5613 79.1534 14.2053 79.5381 14.66C79.5191 14.4553 79.4701 14.2573 79.4489 14.0518C79.4279 14.0633 79.4016 14.0573 79.3896 14.0298C79.0404 13.2308 78.8214 12.3613 78.7754 11.448Z" fill="#497F34"/>
<path d="M68.6094 8.125C69.4364 8.59825 70.0099 9.703 70.3976 10.7257C70.8124 11.8177 71.0726 13.009 71.1564 14.2225C71.1781 13.7817 71.1849 13.3417 71.1589 12.904C71.1569 12.9442 71.1564 12.9817 71.1549 13.0215C71.1549 13.0215 70.3861 8.65025 68.6094 8.125Z" fill="#497F34"/>
<path d="M69.156 12.3508C69.3327 12.6903 69.4775 13.0493 69.6 13.421C69.7487 13.7823 69.88 14.1573 70.0017 14.538C70.0007 14.2423 69.9815 13.948 69.9415 13.6575C69.9405 13.6638 69.9405 13.6705 69.9405 13.677C69.9405 13.677 69.398 10.6628 66.8457 10.3735C66.9657 10.4073 67.0857 10.447 67.203 10.5013C67.4795 10.629 67.7517 10.7798 68.0042 10.9758C68.4577 11.3293 68.8567 11.778 69.156 12.3508Z" fill="#497F34"/>
<path d="M70.0458 5.61748C70.4748 6.09123 70.8458 6.66798 71.1295 7.30173C71.5973 8.34848 71.9233 9.54198 72.0338 10.7552C72.0703 10.4332 72.107 10.1125 72.0718 9.78823C72.0668 9.87073 72.0643 9.94848 72.064 10.0162C71.9025 9.07198 70.981 5.22348 69.25 4.91748C69.5495 5.08848 69.8358 5.38523 70.0458 5.61748Z" fill="#497F34"/>
<path d="M72.6946 8.06951C72.6021 9.53701 72.6403 11.021 72.8333 12.4718C72.8188 11.7998 72.804 11.1273 72.884 10.4625C72.9023 10.3098 72.9211 10.1575 72.9408 10.0055C72.9741 9.45326 73.026 8.90326 73.0995 8.35676C73.1615 6.98476 73.5143 4.37126 73.7868 2.98926C73.2146 4.61476 72.8088 6.26776 72.6946 8.06951Z" fill="#497F34"/>
<path d="M74.834 6.02659C74.474 6.61159 74.1915 7.26909 73.98 7.96684C73.621 9.15359 73.3982 10.4576 73.4565 11.7406C73.5307 11.0321 73.683 10.3388 73.8832 9.67209C74.1877 8.28009 74.896 6.11334 75.4717 5.15234C75.2455 5.42659 75.0285 5.71359 74.834 6.02659Z" fill="#497F34"/>
<path d="M76.5536 6.33545C76.1266 6.55445 75.7218 7.06695 75.4605 7.4957C75.102 8.08245 74.8286 8.77745 74.6668 9.4972C74.4036 10.6719 74.1968 12.0797 74.5073 13.2782C74.5496 12.1217 74.7413 11.0054 75.0528 9.92695C75.245 8.8557 75.6711 7.2187 76.5536 6.33545Z" fill="#497F34"/>
<path d="M78.6679 8.271C78.2961 8.4725 77.9199 8.684 77.5964 8.99575C77.2034 9.375 76.9109 9.88375 76.7079 10.4622C76.3294 11.5435 76.1026 12.986 76.4989 14.1147C76.5394 13.2237 76.7184 12.356 77.0066 11.5495C76.9894 11.5765 76.9834 11.5775 76.9894 11.5432C77.2084 10.2122 77.8616 9.108 78.6679 8.271Z" fill="#497F34"/>
<path d="M77.6086 11.9156C77.3274 12.8371 77.1656 14.0106 77.4731 14.9589C77.5514 14.0314 77.6879 13.1204 78.0126 12.2984C78.0021 12.3194 77.9911 12.3406 77.9804 12.3611C77.9059 10.9999 79.3864 9.82414 79.3651 9.76764C79.3576 9.76689 79.3511 9.76589 79.3446 9.76514C79.0316 10.0044 78.7014 10.2151 78.4129 10.5034C78.0466 10.8701 77.7791 11.3574 77.6086 11.9156Z" fill="#497F34"/>
<path d="M79.1406 10.6616C79.4259 10.8736 79.6699 11.2751 79.8284 11.5726C80.1589 12.1944 80.3026 12.9599 80.3499 13.7114C80.4296 13.3579 80.4721 12.9779 80.4341 12.6156C80.4371 12.6736 80.4394 12.7309 80.4394 12.7894C80.4394 12.7894 80.4074 12.7214 80.3464 12.6186C80.1689 11.7434 79.7954 10.9234 79.1406 10.6616Z" fill="#497F34"/>
<path d="M81.4979 10.1539C81.8529 11.1697 81.9711 12.2637 82.0041 13.3677C82.1424 12.6887 82.2189 11.9884 82.1854 11.2939C82.0764 10.7399 81.4386 7.86644 80.0469 8.24344C80.6979 8.64294 81.1921 9.27819 81.4979 10.1539Z" fill="#497F34"/>
<path d="M83.4225 13.3327C83.2147 12.13 83.092 10.8515 83.2062 9.62273C83.2037 9.63173 83.2012 9.64148 83.1995 9.65073C83.2025 8.78973 83.2472 7.71673 83.4117 6.76123C82.837 8.89348 82.656 11.2675 83.4225 13.3327Z" fill="#497F34"/>
<path d="M84.5666 8.30678C84.3371 9.44478 84.2046 10.7013 84.4576 11.8505C84.5566 10.2905 84.7488 8.71928 85.3418 7.36203C85.2908 7.44628 85.2411 7.53178 85.1923 7.61928C85.3791 6.91028 85.6051 6.22628 85.8758 5.58203C85.2113 6.28678 84.7891 7.20653 84.5666 8.30678Z" fill="#497F34"/>
<path d="M85.45 11.5435C85.4888 10.7427 85.572 9.95196 85.733 9.18946C85.732 9.18971 85.7315 9.19047 85.7313 9.19122C85.739 9.15747 85.747 9.12321 85.7555 9.08796C85.7898 8.93146 85.8278 8.77571 85.869 8.62196C86.1483 7.50596 86.573 5.94247 86.4895 6.00422C86.4633 6.02297 86.4378 6.04546 86.4123 6.06596C85.9985 6.82746 85.7105 7.71597 85.5413 8.61472C85.3623 9.56797 85.29 10.5797 85.45 11.5435Z" fill="#497F34"/>
<path d="M87.661 12.4329C87.5125 11.7542 87.3302 11.0829 87.2612 10.3907C87.26 10.4867 87.26 10.5834 87.2622 10.6812C86.5707 9.01494 87.536 6.54619 87.458 6.59344C87.4402 6.60394 87.4225 6.61669 87.405 6.62794C86.919 7.32869 86.7715 8.39919 86.7567 9.30894C86.738 10.4704 87.0272 11.6117 87.661 12.4329Z" fill="#497F34"/>
<path d="M88.2895 6.42019C88.2895 6.41419 88.2845 6.41694 88.277 6.42594C87.9042 7.81569 87.8515 9.32019 88.2312 10.7264C88.4207 11.4282 88.701 12.0907 89.1212 12.6037C89.3982 12.9422 89.7195 13.3779 90.0975 13.5264C89.9312 13.1522 89.802 12.7582 89.694 12.3532C89.6937 12.3602 89.6937 12.3682 89.6937 12.3752C87.8067 9.58944 88.2627 7.58244 88.2895 6.42019Z" fill="#497F34"/>
<path d="M89.3953 6.92111C89.6985 7.60961 89.9363 8.35386 90.1448 9.09886C90.372 9.90861 90.556 10.7416 90.6698 11.5921C90.7625 12.2906 90.7443 12.9949 90.799 13.6944C90.9218 13.0674 91.0521 12.4241 91.0266 11.7774C90.9043 10.9201 90.7435 10.0701 90.5353 9.24236C90.1605 7.75261 89.6938 6.42586 88.5918 5.69336C88.8998 6.05411 89.179 6.43111 89.3953 6.92111Z" fill="#497F34"/>
<path d="M91.5684 9.66204C91.5771 10.309 91.5989 10.963 91.7474 11.5808C91.7994 10.4935 91.8226 9.40379 91.9624 8.33079C91.8906 8.60479 91.8191 8.90454 91.7481 9.23429C91.7904 8.25229 92.0019 6.20329 92.1464 5.19179C92.3561 4.37254 92.5689 3.23979 92.6419 2.63379C92.6181 2.67954 92.5944 2.72954 92.5689 2.78154C92.0814 4.16904 91.7531 5.69204 91.6206 7.19879C91.5481 8.02129 91.5566 8.83704 91.5684 9.66204Z" fill="#497F34"/>
<path d="M94.7667 6.95149C94.9867 6.57899 95.225 6.21999 95.4597 5.85449C94.3662 6.73424 93.4965 8.02249 93.0777 9.62374C92.8617 10.45 92.74 11.3325 92.7142 12.2052C92.6897 13.0152 92.7422 13.8677 93.061 14.578C93.0837 13.863 93.0967 13.1385 93.1957 12.4395C93.1592 12.5492 93.1242 12.6592 93.0917 12.7697C93.2527 11.5732 93.4237 10.3897 93.7242 9.21399C93.9542 8.31474 94.3415 7.61874 94.7667 6.95149Z" fill="#497F34"/>
<path d="M96.7422 8.47438C96.4154 8.70663 96.1127 8.99538 95.8394 9.32313C95.3192 9.94688 94.8714 10.6734 94.5444 11.4921C94.0847 12.6441 93.8374 13.9046 93.7637 15.1881H93.9297C94.0739 14.5699 94.2424 13.9684 94.4447 13.3906C94.9984 11.3544 95.9117 9.56488 97.3052 8.15088C97.1149 8.25138 96.9227 8.34613 96.7422 8.47438Z" fill="#497F34"/>
<path d="M92.2255 11.6526C92.3217 10.6301 92.35 9.57333 92.5785 8.60708C92.7412 7.44458 93.039 6.32258 93.5752 5.26758C93.4967 5.32908 93.4207 5.39558 93.3455 5.46483C92.8585 6.34833 92.492 7.28383 92.2997 8.36783C92.1142 9.42033 91.9795 10.5961 92.2255 11.6526Z" fill="#497F34"/>
<path d="M79.9414 10.7071C79.9414 10.7071 79.9459 10.7166 79.9529 10.7323C80.2799 11.0861 80.5942 11.4561 80.7329 12.0036C80.8987 12.6613 80.9324 13.3446 80.9379 14.0316C81.0859 13.6238 81.1247 13.1578 81.1387 12.7108C81.1509 12.3331 81.0679 12.0066 80.9732 11.6731C80.7932 11.2721 80.4312 10.6438 79.9414 10.7071Z" fill="#497F34"/>
<path d="M76.1645 9.20982C75.7018 10.1576 75.326 11.2573 75.2695 12.3921C75.4935 11.5628 75.7063 10.7108 76.1025 9.99356C76.3245 9.59256 76.5808 9.23432 76.865 8.91557C77.2818 8.23532 78.0895 6.98482 78.1168 6.83057C77.351 7.44407 76.65 8.21407 76.1645 9.20982Z" fill="#497F34"/>
<path d="M94.6081 6.4222C94.2228 6.69345 93.8773 6.9327 93.5303 7.2882C93.2306 7.5962 92.9876 8.1142 92.8213 8.55295C92.8088 8.5862 92.8388 8.59595 92.8513 8.56845C93.2938 7.6257 93.9171 7.0332 94.6126 6.44245C94.6206 6.4352 94.6186 6.4142 94.6081 6.4222Z" fill="#73B634"/>
<path d="M95.6176 9.08114C94.9964 9.58839 94.4954 10.0586 94.0686 10.8674C93.6316 11.6956 93.3926 12.5261 93.3029 13.5294C93.3006 13.5579 93.3301 13.5414 93.3329 13.5216C93.4621 12.5051 93.7434 11.5969 94.2411 10.7931C94.6604 10.1159 95.0926 9.61989 95.6216 9.09364C95.6286 9.08689 95.6259 9.07414 95.6176 9.08114Z" fill="#73B634"/>
<path d="M91.3349 8.01116C91.3364 7.99891 91.3221 8.00415 91.3204 8.0124C91.0674 9.1069 91.0526 10.2744 91.2086 11.3914C91.2154 11.4359 91.2604 11.3944 91.2586 11.3627C91.2101 10.2572 91.1674 9.10591 91.3349 8.01116Z" fill="#73B634"/>
<path d="M88.8754 6.28543C88.8714 6.27643 88.8614 6.28843 88.8636 6.29618C89.3529 7.69493 89.5766 9.12694 89.8369 10.6144C89.8411 10.6359 89.8636 10.6159 89.8616 10.5997C89.6956 9.05018 89.4709 7.66243 88.8754 6.28543Z" fill="#73B634"/>
<path d="M87.5546 9.82072C87.5729 9.05772 87.7581 8.34572 87.8821 7.60622C87.8846 7.59322 87.8699 7.59922 87.8671 7.60722C87.6641 8.35672 87.4571 9.04747 87.4376 9.85147C87.4179 10.665 87.5426 11.5035 87.7226 12.2797C87.7274 12.2965 87.7491 12.2752 87.7466 12.261C87.6156 11.4607 87.5346 10.64 87.5546 9.82072Z" fill="#73B634"/>
<path d="M86.9243 7.15877C86.2508 8.13002 85.7635 9.20402 85.7383 10.5528C85.7375 10.5955 85.78 10.5713 85.7828 10.54C85.914 9.23977 86.3203 8.19002 86.9303 7.16577C86.9348 7.15877 86.9285 7.15152 86.9243 7.15877Z" fill="#73B634"/>
<path d="M85.7383 7.03834C85.5325 7.48634 85.2918 7.87284 85.1123 8.35234C84.9495 8.78709 84.8683 9.26809 84.8148 9.74309C84.8098 9.79359 84.8618 9.76259 84.8673 9.72909C84.968 9.15134 85.1148 8.60534 85.3158 8.07434C85.449 7.72209 85.623 7.39334 85.7493 7.04109C85.7528 7.03109 85.7418 7.03109 85.7383 7.03834Z" fill="#73B634"/>
<path d="M84.9018 6.46566C83.9863 7.39041 83.4603 8.66416 83.3965 10.1852C83.3955 10.2144 83.4238 10.1979 83.426 10.1777C83.6048 8.70641 84.082 7.50466 84.9095 6.47891C84.9155 6.47016 84.9095 6.45716 84.9018 6.46566Z" fill="#73B634"/>
<path d="M82.7678 8.62069C82.4533 9.53494 82.2905 10.4802 82.415 11.4889C82.419 11.5204 82.45 11.4894 82.45 11.4679C82.4473 10.4994 82.5525 9.53844 82.7813 8.62194C82.7853 8.60669 82.7708 8.61069 82.7678 8.62069Z" fill="#73B634"/>
<path d="M80.7904 9.34427C80.7854 9.33427 80.7728 9.34828 80.7758 9.35728C81.0573 10.148 81.1674 10.9848 81.2934 11.8338C81.2984 11.8668 81.3318 11.8365 81.3303 11.8118C81.2828 10.9568 81.1179 10.089 80.7904 9.34427Z" fill="#73B634"/>
<path d="M77.891 8.49168C77.2972 8.75068 76.834 9.10118 76.4195 9.70768C76.0305 10.2779 75.7815 11.0854 75.682 11.8274C75.6782 11.8554 75.7092 11.8439 75.7132 11.8244C76.0187 10.2882 76.8052 9.16868 77.892 8.50668C77.8982 8.50318 77.9 8.48843 77.891 8.49168Z" fill="#73B634"/>
<path d="M75.6464 6.97615C75.1804 7.54015 74.7614 8.01415 74.4477 8.75665C74.0849 9.61715 73.8217 10.5457 73.7327 11.5239C73.7289 11.5624 73.7684 11.5399 73.7727 11.5137C73.9112 10.5567 74.2099 9.6704 74.5502 8.8104C74.8367 8.08565 75.2352 7.56815 75.6532 6.9834C75.6577 6.9764 75.6522 6.9699 75.6464 6.97615Z" fill="#73B634"/>
<path d="M74.6236 5.76173C73.7486 6.72623 73.2648 8.24423 73.1428 9.70023C73.1391 9.73923 73.1786 9.71599 73.1821 9.69024C73.3988 8.26949 73.8198 6.80873 74.6263 5.76598C74.6278 5.76323 74.6263 5.75873 74.6236 5.76173Z" fill="#73B634"/>
<path d="M70.0427 5.91773C70.036 5.90948 70.0255 5.92648 70.0307 5.93448C71.1277 7.80073 71.3455 10.1047 71.4837 12.3787C71.4852 12.403 71.5137 12.384 71.5137 12.366C71.5155 10.1705 71.3502 7.51173 70.0427 5.91773Z" fill="#73B634"/>
<path d="M69.2314 9.22517C69.2284 9.22142 69.2234 9.22867 69.2249 9.23242C69.5524 9.80692 69.7711 10.6819 69.8866 11.3704C70.0291 12.2227 70.1576 13.0519 70.2181 13.9222C70.2209 13.9572 70.2594 13.9282 70.2601 13.9047C70.3246 12.4159 70.0271 10.3677 69.2314 9.22517Z" fill="#73B634"/>
<path d="M67.4767 11.126C67.4697 11.1185 67.4585 11.1342 67.4647 11.142C68.1527 12.013 68.672 13.1577 68.9322 14.3657C68.938 14.393 68.9672 14.368 68.9645 14.3457C68.8155 13.035 68.3105 11.888 67.4767 11.126Z" fill="#73B634"/>
<path d="M95.1862 15.0077C91.5234 14.4235 87.5874 14.7165 83.8842 14.6682C79.8317 14.6157 75.7759 14.6615 71.7232 14.6632C63.8194 14.6675 55.9162 14.6717 48.0134 14.676C40.1104 14.6795 32.2067 14.6835 24.3044 14.688C16.5682 14.6915 8.70041 14.2712 1.00716 15.1695C0.966162 15.1745 0.926412 15.256 0.983662 15.263C8.73241 16.2405 16.7279 15.74 24.5284 15.744C32.4279 15.7482 40.3279 15.7522 48.2277 15.756C56.1284 15.7602 64.0284 15.7642 71.9294 15.7682C75.7809 15.7702 79.6347 15.8125 83.4857 15.763C87.3049 15.714 91.3004 15.97 95.0849 15.4197C95.2644 15.3937 95.4392 15.0485 95.1862 15.0077Z" fill="#8D5A20"/>
<path d="M18.749 7.68768C18.6322 7.13593 18.4997 6.59868 18.4182 6.27743C18.3985 6.27643 18.3785 6.27468 18.3592 6.27393C14.8987 6.41393 13.6992 10.6549 13.6992 10.6549C13.6992 10.6549 14.8812 11.4477 16.3205 12.3152C16.7667 11.6144 17.514 10.4592 18.0427 9.73392C18.6752 8.76667 18.8422 8.59893 18.749 7.68768Z" fill="#686867"/>
<path d="M19.493 8.61833C20.3862 8.99008 22.4505 10.1061 23.716 11.2038C24.469 11.8571 24.9587 12.4778 25.2312 12.8728C25.2122 11.9186 24.7412 10.8296 23.772 9.51133C22.0357 7.49908 20.0267 6.35908 18.418 6.27783C18.4995 6.59908 18.632 7.13633 18.7487 7.68808C18.759 7.78158 18.7647 7.86708 18.7695 7.94608C18.8892 8.19308 19.105 8.45658 19.493 8.61833Z" fill="#454545"/>
<path d="M23.7161 11.2036C22.4506 10.1058 20.3866 8.9898 19.4931 8.61805C19.1051 8.4563 18.8893 8.1928 18.7696 7.9458C18.8028 8.64205 18.6101 8.8663 18.0426 9.73405C17.5141 10.4593 16.7666 11.6146 16.3203 12.3153C17.5533 13.0581 18.9746 13.8556 20.0053 14.2546C22.2373 15.1201 24.4978 15.0078 24.9998 14.0596C25.1616 13.6848 25.2396 13.2913 25.2313 12.8723C24.9588 12.4776 24.4691 11.8568 23.7161 11.2036Z" fill="#2B2B2B"/>
<path d="M22.3396 13.1944C22.3814 12.4371 22.0956 11.3099 21.9521 10.8006C21.5541 10.5146 21.1269 10.2611 20.6834 10.0691C19.1394 9.38113 17.4844 10.7569 17.4844 10.7569L19.5264 14.8249C21.1204 14.3336 22.3049 13.8834 22.3396 13.1944Z" fill="#969695"/>
<path d="M24.2914 13.306C23.9359 12.636 23.0569 11.5935 21.9512 10.8008C22.0947 11.31 22.3804 12.437 22.3387 13.1945C22.3357 13.245 22.3259 13.2953 22.3114 13.3443C22.6567 13.5453 23.5014 14.0245 24.1857 14.3058C24.4392 14.0245 24.4797 13.6908 24.2914 13.306Z" fill="#686867"/>
<path d="M22.3114 13.3442C22.1251 13.9502 21.0011 14.37 19.5254 14.825L19.6596 15.0915C19.6596 15.0915 20.9249 15.3147 22.4319 15.0735C23.2959 14.8922 23.8879 14.6355 24.1856 14.3057C23.5011 14.0245 22.6564 13.5452 22.3114 13.3442Z" fill="#454545"/>
<path d="M16.6463 12.3389C16.1701 11.0587 15.5993 10.1719 15.3896 9.86865C15.2141 9.87065 15.0428 9.89265 14.8793 9.93915C13.1306 10.4042 12.1073 11.7807 12.1073 11.7807C11.0476 13.1199 11.9218 13.8079 12.8701 14.6267C13.2891 14.9872 13.7763 15.1812 14.4503 15.2824C14.7678 15.1424 15.3353 14.8667 15.9021 14.4597C16.7581 13.8457 17.0373 13.4739 16.6463 12.3389Z" fill="#969695"/>
<path d="M21.1131 13.656C20.6409 12.9783 19.6079 11.9358 18.6564 11.2965C17.7284 10.6245 16.4704 9.85704 15.3906 9.86829C15.6004 10.1715 16.1711 11.058 16.6474 12.3385C16.8854 13.03 16.8741 13.4383 16.6364 13.7895C16.9296 13.6423 17.3294 13.515 17.8546 13.4938C18.9929 13.448 20.3694 13.4868 21.1131 13.656Z" fill="#686867"/>
<path d="M21.1129 13.6561C20.3692 13.4868 18.9929 13.4478 17.8547 13.4941C17.3294 13.5153 16.9297 13.6426 16.6364 13.7898C16.4839 14.0163 16.2382 14.2196 15.9029 14.4596C15.3362 14.8666 14.7687 15.1423 14.4512 15.2823C15.2727 15.4058 16.3729 15.3911 17.9679 15.3708C20.8329 15.2593 21.5394 14.6453 21.3534 14.0871C21.3164 13.9751 21.2322 13.8268 21.1129 13.6561Z" fill="#454545"/>
<path d="M85.2717 10.6571C85.1999 10.3176 85.1182 9.98734 85.0689 9.79034C85.0562 9.78959 85.0442 9.78859 85.0324 9.78809C82.9067 9.87384 82.1699 12.4786 82.1699 12.4786C82.1699 12.4786 82.8962 12.9666 83.7799 13.4993C84.0537 13.0691 84.5134 12.3591 84.8379 11.9138C85.2267 11.3193 85.3292 11.2168 85.2717 10.6571Z" fill="#686867"/>
<path d="M85.7286 11.2278C86.2769 11.4565 87.5456 12.142 88.3224 12.816C88.7851 13.2175 89.0856 13.5988 89.2534 13.8415C89.2414 13.2553 88.9529 12.5863 88.3571 11.7765C87.2896 10.54 86.0566 9.83978 85.0684 9.79053C85.1176 9.98753 85.1994 10.3175 85.2711 10.6573C85.2774 10.7145 85.2811 10.7663 85.2836 10.8153C85.3576 10.9665 85.4901 11.1283 85.7286 11.2278Z" fill="#454545"/>
<path d="M88.3223 12.8162C87.5455 12.1422 86.2768 11.4567 85.7285 11.2279C85.49 11.1284 85.3575 10.9667 85.2835 10.8149C85.3045 11.2422 85.1855 11.3802 84.8373 11.9139C84.5125 12.3589 84.0528 13.0692 83.7793 13.4994C84.5363 13.9554 85.41 14.4454 86.0428 14.6907C87.414 15.2222 88.8028 15.1529 89.1115 14.5704C89.2105 14.3402 89.2588 14.0987 89.2533 13.8417C89.0855 13.5989 88.785 13.2177 88.3223 12.8162Z" fill="#2B2B2B"/>
<path d="M87.4766 14.0397C87.5029 13.574 87.3266 12.8815 87.2391 12.5685C86.9944 12.3932 86.7321 12.2375 86.4599 12.12C85.5116 11.697 84.4941 12.5422 84.4941 12.5422L85.7494 15.0412C86.7279 14.739 87.4559 14.4627 87.4766 14.0397Z" fill="#969695"/>
<path d="M88.678 14.1081C88.4597 13.6959 87.9195 13.0561 87.2402 12.5684C87.328 12.8814 87.5042 13.5739 87.4777 14.0396C87.4765 14.0706 87.4705 14.1011 87.4612 14.1314C87.6737 14.2549 88.192 14.5491 88.6127 14.7216C88.7687 14.5491 88.7937 14.3444 88.678 14.1081Z" fill="#686867"/>
<path d="M87.461 14.1313C87.3467 14.5038 86.6565 14.7611 85.75 15.0411L85.8325 15.2043C85.8325 15.2043 86.6093 15.3418 87.5348 15.1938C88.066 15.0823 88.4295 14.9246 88.6125 14.7216C88.1917 14.5491 87.6735 14.2548 87.461 14.1313Z" fill="#454545"/>
<path d="M83.9807 13.5138C83.6874 12.7273 83.3372 12.1826 83.2082 11.9966C83.1004 11.9976 82.9954 12.0108 82.8949 12.0401C81.8207 12.3253 81.1922 13.1711 81.1922 13.1711C80.5409 13.9938 81.0779 14.4166 81.6609 14.9193C81.9179 15.1411 82.2169 15.2596 82.6312 15.3221C82.8262 15.2356 83.1749 15.0668 83.5232 14.8168C84.0492 14.4396 84.2207 14.2108 83.9807 13.5138Z" fill="#969695"/>
<path d="M86.7247 14.3229C86.4345 13.9062 85.7997 13.2659 85.2152 12.8734C84.6447 12.4604 83.872 11.9892 83.209 11.9962C83.338 12.1824 83.6882 12.7269 83.9815 13.5134C84.1275 13.9379 84.1205 14.1892 83.9747 14.4052C84.1545 14.3144 84.4005 14.2364 84.7227 14.2232C85.4217 14.1947 86.2675 14.2192 86.7247 14.3229Z" fill="#686867"/>
<path d="M86.7236 14.3227C86.2664 14.2189 85.4206 14.1942 84.7214 14.2232C84.3991 14.2364 84.1531 14.3144 83.9734 14.4052C83.8799 14.5439 83.7284 14.6692 83.5229 14.8162C83.1744 15.0664 82.8259 15.2352 82.6309 15.3214C83.1356 15.3974 83.8119 15.3884 84.7911 15.3757C86.5511 15.3072 86.9854 14.9302 86.8706 14.5877C86.8481 14.5184 86.7961 14.4279 86.7236 14.3227Z" fill="#454545"/>
<path d="M54.7845 12.2553C54.401 10.9446 53.8948 10.0191 53.7075 9.7016C53.5328 9.6906 53.36 9.70009 53.194 9.73534C51.4163 10.0738 50.2973 11.3736 50.2973 11.3736C49.1438 12.6333 49.9668 13.3826 50.854 14.2676C51.2463 14.6566 51.7183 14.8846 52.3828 15.0343C52.7103 14.9168 53.2955 14.6828 53.8905 14.3171C54.788 13.7663 55.0933 13.4151 54.7845 12.2553Z" fill="#969695"/>
<path d="M59.144 13.8887C58.7213 13.1787 57.7655 12.0652 56.8618 11.3594C55.9845 10.6227 54.785 9.76667 53.707 9.70117C53.894 10.0187 54.4003 10.9442 54.784 12.2549C54.972 12.9614 54.9318 13.3674 54.6695 13.7019C54.9728 13.5762 55.3803 13.4777 55.9053 13.4939C57.044 13.5292 58.4143 13.6669 59.144 13.8887Z" fill="#686867"/>
<path d="M59.1443 13.8889C58.4146 13.6669 57.0443 13.5291 55.9056 13.4939C55.3803 13.4779 54.9731 13.5764 54.6698 13.7019C54.5013 13.9166 54.2411 14.1016 53.8906 14.3166C53.2956 14.6824 52.7101 14.9164 52.3828 15.0339C53.1941 15.2159 54.2926 15.2799 55.8848 15.3741C58.7501 15.4676 59.4991 14.9054 59.3533 14.3356C59.3238 14.2216 59.2506 14.0679 59.1443 13.8889Z" fill="#454545"/>
<path d="M60.4476 13.4777C60.1494 12.6762 59.7919 12.1207 59.6604 11.9307C59.5509 11.9317 59.4441 11.9457 59.3416 11.9749C58.2469 12.2662 57.6061 13.1279 57.6061 13.1279C56.9424 13.9662 57.4896 14.3969 58.0834 14.9099C58.3461 15.1352 58.6509 15.2567 59.0729 15.3202C59.2716 15.2327 59.6269 15.0597 59.9819 14.8047C60.5171 14.4204 60.6921 14.1879 60.4476 13.4777Z" fill="#969695"/>
<path d="M63.2434 14.3025C62.9479 13.8775 62.3012 13.2255 61.7057 12.8247C61.1247 12.404 60.3364 11.9237 59.6602 11.9307C59.7917 12.1205 60.1492 12.676 60.4474 13.4777C60.5964 13.9102 60.5892 14.1657 60.4409 14.386C60.6242 14.294 60.8742 14.2142 61.2032 14.2002C61.9157 14.172 62.7782 14.1962 63.2434 14.3025Z" fill="#686867"/>
<path d="M63.2433 14.3026C62.778 14.1963 61.9155 14.1721 61.203 14.2003C60.874 14.2143 60.624 14.2938 60.4408 14.3861C60.3453 14.5276 60.191 14.6553 59.9813 14.8051C59.6263 15.0601 59.271 15.2331 59.0723 15.3206C59.5868 15.3978 60.2755 15.3886 61.2745 15.3761C63.0678 15.3066 63.5105 14.9216 63.3943 14.5723C63.3705 14.5018 63.3178 14.4093 63.2433 14.3026Z" fill="#454545"/>
</svg>
